<svg id="Layer_5" enable-background="new 0 0 64 64" height="512" viewBox="0 0 64 64" width="512" xmlns="http://www.w3.org/2000/svg"><g><g><path d="m62 14v44c0 2.21-1.79 4-4 4h-4c2.21 0 4-1.79 4-4v-44c0-2.21-1.79-4-4-4h4c2.21 0 4 1.79 4 4z" fill="#ecc19c"/><path d="m58 14v44c0 2.21-1.79 4-4 4h-4c2.21 0 4-1.79 4-4v-44c0-2.21-1.79-4-4-4h4c2.21 0 4 1.79 4 4z" fill="#fcd770"/><path d="m46 62c2.21 0 4-1.79 4-4v-10-26-8c0-2.21-1.79-4-4-4h2 2c2.21 0 4 1.79 4 4v44c0 2.21-1.79 4-4 4h-1z" fill="#5cd6b3"/><path d="m50 48v10c0 2.21-1.79 4-4 4h-1-4-35c-2.21 0-4-1.79-4-4h40z" fill="#ccd1d9"/><path d="m50 22v26h-4v-4-8-8h-8-8-8-8-8v8 8 8h8 8 8 8 4v6h-40v-36z" fill="#e6e9ed"/><path d="m50 48-8 10v-6-4h4z" fill="#fcd770"/><path d="m12 10h8 4 6c0 4.42 3.58 8 8 8v-4c-2.21 0-4-1.79-4-4h6 2 2 2c2.21 0 4 1.79 4 4v8h-48v-8c0-2.21 1.79-4 4-4h2c0 4.42 3.58 8 8 8v-4c-2.21 0-4-1.79-4-4z" fill="#ff826e"/><path d="m24 10h-4c0-2.21-1.79-4-4-4s-4 1.79-4 4 1.79 4 4 4v4c-4.42 0-8-3.58-8-8s3.58-8 8-8 8 3.58 8 8z" fill="#aab2bd"/><path d="m46 10h-2-2c0-2.21-1.79-4-4-4s-4 1.79-4 4 1.79 4 4 4v4c-4.42 0-8-3.58-8-8s3.58-8 8-8 8 3.58 8 8z" fill="#aab2bd"/><path d="m6 28v24h36v-4h4v-20z" fill="#5cd6b3"/></g><path d="m58 9h-4-4-2-1.059c-.499-4.493-4.316-8-8.941-8s-8.442 3.507-8.941 8h-4.118c-.499-4.493-4.316-8-8.941-8s-8.442 3.507-8.941 8h-1.059c-2.757 0-5 2.243-5 5v44c0 2.757 2.243 5 5 5h35 4 1 3 1 4 4c2.757 0 5-2.243 5-5v-44c0-2.757-2.243-5-5-5zm-20-6c3.519 0 6.432 2.613 6.92 6h-.92-1.101c-.465-2.279-2.485-4-4.899-4-2.757 0-5 2.243-5 5 0 2.415 1.721 4.435 4 4.899v2.029c-3.388-.487-6-3.408-6-6.929 0-3.859 3.141-6.999 7-6.999zm2.816 6h-.816-4.816c.414-1.161 1.514-2 2.816-2s2.402.839 2.816 2zm-24.816-6c3.519 0 6.432 2.613 6.92 6h-2.021c-.465-2.279-2.485-4-4.899-4-2.757 0-5 2.243-5 5 0 2.415 1.721 4.435 4 4.899v2.029c-3.388-.486-6-3.407-6-6.928 0-3.86 3.141-7 7-7zm2.816 6h-5.631c.413-1.161 1.513-2 2.815-2s2.402.839 2.816 2zm-12.816 2h1.059c.499 4.493 4.316 8 8.941 8h1v-6h-1c-1.302 0-2.402-.839-2.816-2h15.875c.499 4.493 4.316 8 8.941 8h1v-6h-1c-1.302 0-2.402-.839-2.816-2h4.816 4 2c1.654 0 3 1.346 3 3v7h-46v-7c0-1.654 1.346-3 3-3zm43 36h-2v-20h-42v26h36v4h-38v-34h46zm-8 0v4h-2v-6h6v2zm-18-10h6v6h-6zm-2 6h-6v-6h6zm10-6h6v6h-6zm8 0h6v6h-6zm6-2h-6v-6h6zm-8 0h-6v-6h6zm-8 0h-6v-6h6zm-8 0h-6v-6h6zm-8 0h-6v-6h6zm-6 2h6v6h-6zm0 8h6v6h-6zm8 0h6v6h-6zm8 0h6v6h-6zm8 0h6v6h-6zm12 4h4.919l-4.919 6.149zm2 12h-4-35c-1.302 0-2.402-.839-2.816-2h39.296l6.52-8.149v7.149c0 1.654-1.346 3-3 3zm4.974 0c.635-.838 1.026-1.87 1.026-3v-44c0-1.13-.391-2.162-1.026-3h.026c1.654 0 3 1.346 3 3v44c0 1.654-1.346 3-3 3zm4 0c.635-.838 1.026-1.87 1.026-3v-44c0-1.13-.391-2.162-1.026-3h.026c1.654 0 3 1.346 3 3v44c0 1.654-1.346 3-3 3zm7.026-3c0 1.654-1.346 3-3 3h-.026c.635-.838 1.026-1.87 1.026-3v-44c0-1.13-.391-2.162-1.026-3h.026c1.654 0 3 1.346 3 3z"/></g></svg>