<?xml version="1.0" standalone="no"?>
<svg xmlns="http://www.w3.org/2000/svg" version="1.1" xmlns:xlink="http://www.w3.org/1999/xlink" width="512" height="512" x="0" y="0" viewBox="0 0 512 512" style="enable-background:new 0 0 512 512" xml:space="preserve" class=""><g><path fill="#f1f1f1" d="M280 96a40 40 0 0 1-63.63 32.27 72.011 72.011 0 0 1-128.74 0 40 40 0 1 1 0-64.54 72.011 72.011 0 0 1 128.74 0A40 40 0 0 1 280 96z" opacity="1" data-original="#606669"/><g fill="#f7b030"><path d="M488 80s-40 8-40 56c0-48-40-56-40-56s40-8 40-56c0 48 40 56 40 56zM88 424s-24 8-24 40c0-32-24-40-24-40s24-8 24-40c0 32 24 40 24 40zM400 232h-8v-16a8 8 0 0 0-16 0v16h-8a8 8 0 0 0 0 16h8v16a8 8 0 0 0 16 0v-16h8a8 8 0 0 0 0-16z" fill="#f7b030" opacity="1" data-original="#f7b030"/><path d="M368 400q4.605 0 9.13-.32a176 176 0 1 1 0-255.36q-4.53-.315-9.13-.32a128 128 0 0 0 0 256z" fill="#f7b030" opacity="1" data-original="#f7b030"/></g><path fill="#f1f1f1" d="M488 408a56.006 56.006 0 0 1-92.31 42.64 80 80 0 0 1-135.38 0 56 56 0 1 1 0-85.28 80 80 0 0 1 135.38 0A56.006 56.006 0 0 1 488 408z" opacity="1" data-original="#606669"/></g></svg>