<?xml version="1.0" encoding="UTF-8"?>
<svg xmlns="http://www.w3.org/2000/svg" width="1500" height="1500" viewBox="0 0 1500 1500">
  <defs>
    <style>
      .cls-1 {
        fill: #ac527f;
      }

      .cls-1, .cls-2, .cls-3, .cls-4, .cls-5, .cls-6, .cls-7, .cls-8, .cls-9, .cls-10, .cls-11, .cls-12 {
        stroke-width: 0px;
      }

      .cls-2 {
        fill: #be6159;
      }

      .cls-3 {
        fill: #b69a8f;
      }

      .cls-13 {
        isolation: isolate;
      }

      .cls-4 {
        fill: #e5833f;
      }

      .cls-5 {
        fill: #404041;
        mix-blend-mode: multiply;
        opacity: .2;
      }

      .cls-6 {
        fill: #f5e2ac;
      }

      .cls-7 {
        fill: #d67c69;
      }

      .cls-8 {
        fill: #f5e2c2;
      }

      .cls-9 {
        fill: #4b4254;
      }

      .cls-10 {
        fill: #f89e45;
      }

      .cls-11 {
        fill: #dec399;
      }

      .cls-12 {
        fill: #927d74;
      }
    </style>
  </defs>
  <g class="cls-13">
    <g id="Layer_2" data-name="Layer 2">
      <g>
        <g>
          <rect class="cls-11" x="21.33" y="338.33" width="108.09" height="1016.07"/>
          <g>
            <g>
              <rect class="cls-4" x="72.09" y="173.44" width="5.13" height="16.13"/>
              <rect class="cls-4" x="72.96" y="158.81" width="3.39" height="16.13"/>
              <rect class="cls-4" x="73.44" y="145.32" width="2.43" height="16.13"/>
              <path class="cls-1" d="M81.98,193.36h-14.08v.15c-27.17,31.91-88.1,58.59-47.5,103.51h-2.46v8.8h114.1v-8.8h-2.45c40.66-44.98-20.52-71.68-47.62-103.66Z"/>
              <path class="cls-5" d="M74.97,193.36h-7.06v.15c-27.17,31.91-88.1,58.59-47.5,103.51h-2.46v8.8h57.01v-112.45Z"/>
              <rect class="cls-11" x="21.7" y="305.81" width="107.73" height="24.56"/>
              <rect class="cls-10" x="17.96" y="297.01" width="114.1" height="8.8"/>
              <path class="cls-10" d="M70.24,188.05h9.46c1.29,0,2.33,1.05,2.33,2.33v2.97h-14.12v-2.97c0-1.29,1.04-2.33,2.33-2.33Z"/>
              <rect class="cls-5" x="73.44" y="146.14" width="2.43" height="2.54"/>
              <rect class="cls-5" x="72.96" y="162.35" width="3.39" height="2.54"/>
              <rect class="cls-5" x="72.09" y="180.88" width="5.13" height="2.54"/>
              <path class="cls-10" d="M82.23,142.53c-7.42,0-13.44-6.02-13.44-13.44,0-1.91.4-3.73,1.13-5.37-3.37,2.44-5.57,6.4-5.57,10.88,0,7.42,6.02,13.44,13.44,13.44,5.51,0,10.24-3.32,12.31-8.07-2.21,1.6-4.92,2.56-7.86,2.56Z"/>
              <path class="cls-10" d="M80.43,157.85c0,3.19-2.58,5.77-5.77,5.77s-5.77-2.58-5.77-5.77,2.58-5.77,5.77-5.77,5.77,2.58,5.77,5.77Z"/>
              <path class="cls-10" d="M81.73,174.94c0,3.91-3.17,7.08-7.08,7.08s-7.08-3.17-7.08-7.08,3.17-7.08,7.08-7.08,7.08,3.17,7.08,7.08Z"/>
              <path class="cls-5" d="M79.93,193.36h-9.92v.15c-19.15,31.91-62.11,58.59-33.49,103.51h76.98c28.67-44.98-14.46-71.68-33.57-103.66ZM75.58,195.57c2.12,7.4,4.8,14.6,7.41,21.58,4.23,11.35,8.61,23.09,10.62,35.88,2.16,13.79,1.29,27.47-2.66,41.78h-31.87c-3.95-14.31-4.83-27.99-2.66-41.78,2.01-12.8,6.38-24.53,10.62-35.88,2.6-6.98,5.29-14.18,7.41-21.58h1.15ZM29.51,273.09c-.84-6.57-.14-13,2.15-19.69,4.34-12.65,13.87-24.33,23.09-35.63,5.85-7.17,11.89-14.57,16.59-22.2h.8c-8.86,30.49-26.91,56.61-15.35,99.24h-19.04c-4.62-7.49-7.32-14.6-8.23-21.71ZM112.28,294.8h-19.05c11.57-42.63-6.49-68.75-15.35-99.24h.8c4.7,7.63,10.74,15.03,16.59,22.2,9.22,11.3,18.75,22.99,23.09,35.63,2.29,6.68,2.99,13.13,2.15,19.69-.91,7.11-3.61,14.22-8.23,21.71Z"/>
            </g>
            <rect class="cls-5" x="21.7" y="305.81" width="107.73" height="1.61"/>
          </g>
          <polygon class="cls-2" points="140.91 828.51 9.85 828.51 21.33 857.47 129.42 857.47 140.91 828.51"/>
          <rect class="cls-2" x="9.85" y="787.87" width="131.07" height="40.64"/>
          <path class="cls-7" d="M9.85,787.87v40.64h131.07v-40.64H9.85ZM24.36,817.02h-10.6v-25.63h10.6v25.63ZM38.44,817.02h-10.6v-25.63h10.6v25.63ZM52.52,817.02h-10.6v-25.63h10.6v25.63ZM66.6,817.02h-10.6v-25.63h10.6v25.63ZM80.68,817.02h-10.6v-25.63h10.6v25.63ZM94.75,817.02h-10.6v-25.63h10.6v25.63ZM108.83,817.02h-10.6v-25.63h10.6v25.63ZM122.91,817.02h-10.6v-25.63h10.6v25.63ZM136.99,817.02h-10.6v-25.63h10.6v25.63Z"/>
          <g>
            <path class="cls-2" d="M18.13,774.48c-4.55,3.69-4.37,9.11-4.37,9.11v4.27h4.37s4.36,0,4.36,0v-4.27s.18-5.42-4.36-9.11Z"/>
            <path class="cls-2" d="M29.58,774.48c-4.55,3.69-4.37,9.11-4.37,9.11v4.27h4.37s4.36,0,4.36,0v-4.27s.18-5.42-4.36-9.11Z"/>
            <path class="cls-2" d="M41.03,774.48c-4.55,3.69-4.36,9.11-4.36,9.11v4.27h4.36s4.36,0,4.36,0v-4.27s.18-5.42-4.36-9.11Z"/>
            <path class="cls-2" d="M52.48,774.48c-4.55,3.69-4.36,9.11-4.36,9.11v4.27h4.36s4.37,0,4.37,0v-4.27s.18-5.42-4.37-9.11Z"/>
            <path class="cls-2" d="M63.93,774.48c-4.55,3.69-4.37,9.11-4.37,9.11v4.27h4.37s4.37,0,4.37,0v-4.27s.18-5.42-4.37-9.11Z"/>
            <path class="cls-2" d="M75.38,774.48c-4.55,3.69-4.37,9.11-4.37,9.11v4.27h4.37s4.37,0,4.37,0v-4.27s.18-5.42-4.37-9.11Z"/>
            <path class="cls-2" d="M86.83,774.48c-4.55,3.69-4.37,9.11-4.37,9.11v4.27h4.37s4.36,0,4.36,0v-4.27s.18-5.42-4.36-9.11Z"/>
            <path class="cls-2" d="M98.27,774.48c-4.55,3.69-4.36,9.11-4.36,9.11v4.27h4.36s4.36,0,4.36,0v-4.27s.18-5.42-4.36-9.11Z"/>
            <path class="cls-2" d="M109.72,774.48c-4.55,3.69-4.36,9.11-4.36,9.11v4.27h4.36s4.37,0,4.37,0v-4.27s.18-5.42-4.37-9.11Z"/>
            <path class="cls-2" d="M121.17,774.48c-4.55,3.69-4.36,9.11-4.36,9.11v4.27h4.36s4.37,0,4.37,0v-4.27s.18-5.42-4.37-9.11Z"/>
            <path class="cls-2" d="M132.62,774.48c-4.55,3.69-4.37,9.11-4.37,9.11v4.27h4.37s4.36,0,4.36,0v-4.27s.18-5.42-4.36-9.11Z"/>
          </g>
          <polygon class="cls-2" points="140.91 547.59 9.85 547.59 21.33 576.55 129.42 576.55 140.91 547.59"/>
          <rect class="cls-2" x="9.85" y="506.94" width="131.07" height="40.65"/>
          <path class="cls-7" d="M9.85,506.94v40.65h131.07v-40.65H9.85ZM24.36,536.1h-10.6v-25.62h10.6v25.62ZM38.44,536.1h-10.6v-25.62h10.6v25.62ZM52.52,536.1h-10.6v-25.62h10.6v25.62ZM66.6,536.1h-10.6v-25.62h10.6v25.62ZM80.68,536.1h-10.6v-25.62h10.6v25.62ZM94.75,536.1h-10.6v-25.62h10.6v25.62ZM108.83,536.1h-10.6v-25.62h10.6v25.62ZM122.91,536.1h-10.6v-25.62h10.6v25.62ZM136.99,536.1h-10.6v-25.62h10.6v25.62Z"/>
          <g>
            <path class="cls-2" d="M18.13,493.56c-4.55,3.69-4.37,9.11-4.37,9.11v4.27h4.37s4.36,0,4.36,0v-4.27s.18-5.42-4.36-9.11Z"/>
            <path class="cls-2" d="M29.58,493.56c-4.55,3.69-4.37,9.11-4.37,9.11v4.27h4.37s4.36,0,4.36,0v-4.27s.18-5.42-4.36-9.11Z"/>
            <path class="cls-2" d="M41.03,493.56c-4.55,3.69-4.36,9.11-4.36,9.11v4.27h4.36s4.36,0,4.36,0v-4.27s.18-5.42-4.36-9.11Z"/>
            <path class="cls-2" d="M52.48,493.56c-4.55,3.69-4.36,9.11-4.36,9.11v4.27h4.36s4.37,0,4.37,0v-4.27s.18-5.42-4.37-9.11Z"/>
            <path class="cls-2" d="M63.93,493.56c-4.55,3.69-4.37,9.11-4.37,9.11v4.27h4.37s4.37,0,4.37,0v-4.27s.18-5.42-4.37-9.11Z"/>
            <path class="cls-2" d="M75.38,493.56c-4.55,3.69-4.37,9.11-4.37,9.11v4.27h4.37s4.37,0,4.37,0v-4.27s.18-5.42-4.37-9.11Z"/>
            <path class="cls-2" d="M86.83,493.56c-4.55,3.69-4.37,9.11-4.37,9.11v4.27h4.37s4.36,0,4.36,0v-4.27s.18-5.42-4.36-9.11Z"/>
            <path class="cls-2" d="M98.27,493.56c-4.55,3.69-4.36,9.11-4.36,9.11v4.27h4.36s4.36,0,4.36,0v-4.27s.18-5.42-4.36-9.11Z"/>
            <path class="cls-2" d="M109.72,493.56c-4.55,3.69-4.36,9.11-4.36,9.11v4.27h4.36s4.37,0,4.37,0v-4.27s.18-5.42-4.37-9.11Z"/>
            <path class="cls-2" d="M121.17,493.56c-4.55,3.69-4.36,9.11-4.36,9.11v4.27h4.36s4.37,0,4.37,0v-4.27s.18-5.42-4.37-9.11Z"/>
            <path class="cls-2" d="M132.62,493.56c-4.55,3.69-4.37,9.11-4.37,9.11v4.27h4.37s4.36,0,4.36,0v-4.27s.18-5.42-4.36-9.11Z"/>
          </g>
          <rect class="cls-10" x="16.58" y="328.2" width="117.59" height="10.12"/>
          <rect class="cls-5" x="21.33" y="338.33" width="108.09" height="3.8"/>
          <g>
            <path class="cls-9" d="M71.22,383.12h10.11c6.54,0,11.86,5.31,11.86,11.86v54.59h-33.82v-54.58c0-6.55,5.31-11.86,11.86-11.86Z"/>
            <path class="cls-5" d="M76.61,383.12h-.68c-4.7,0-8.95,1.96-11.97,5.11.28-.01.57-.02.85-.02h.68c9.15,0,16.57,7.42,16.57,16.57v44.78h11.11v-49.87c0-9.15-7.42-16.57-16.57-16.57Z"/>
            <path class="cls-7" d="M76.27,378.02c-12.13,0-22,9.87-22,22v54.63h44v-54.63c0-12.13-9.87-22-22-22ZM93.18,449.56h-33.82v-49.54c0-9.34,7.57-16.91,16.91-16.91s16.91,7.57,16.91,16.91v49.54Z"/>
          </g>
          <g>
            <path class="cls-9" d="M71.22,637.64h10.1c6.55,0,11.86,5.31,11.86,11.86v54.59h-33.82v-54.59c0-6.55,5.31-11.86,11.86-11.86Z"/>
            <path class="cls-5" d="M76.61,637.64h-.68c-4.7,0-8.95,1.96-11.97,5.11.28-.02.57-.02.85-.02h.68c9.15,0,16.57,7.42,16.57,16.57v44.78h11.11v-49.87c0-9.15-7.42-16.57-16.57-16.57Z"/>
            <path class="cls-7" d="M76.27,632.54c-12.13,0-22,9.87-22,22v54.63h44v-54.63c0-12.13-9.87-22-22-22ZM93.18,704.08h-33.82v-49.54c0-9.34,7.57-16.91,16.91-16.91s16.91,7.57,16.91,16.91v49.54Z"/>
          </g>
        </g>
        <polygon class="cls-5" points="43 1354.4 65.37 1354.4 65.37 1062.78 59.44 1062.78 43 1354.4"/>
        <g>
          <g>
            <g>
              <rect class="cls-4" x="292.8" y="726.75" width="11.01" height="34.63"/>
              <rect class="cls-4" x="294.66" y="695.33" width="7.28" height="34.63"/>
              <rect class="cls-4" x="295.69" y="666.36" width="5.21" height="34.63"/>
              <path class="cls-1" d="M314.03,769.52h-30.23v.31c-58.34,68.53-189.17,125.82-101.99,222.27h-5.27v18.9h245.02v-18.9h-5.27c87.32-96.6-44.05-153.92-102.26-222.58Z"/>
              <path class="cls-5" d="M298.97,769.52h-15.17v.31c-58.34,68.53-189.17,125.82-101.99,222.27h-5.27v18.9h122.42v-241.48Z"/>
              <rect class="cls-6" x="184.58" y="1011" width="231.33" height="52.73"/>
              <rect class="cls-10" x="176.54" y="992.1" width="245.02" height="18.9"/>
              <path class="cls-9" d="M216.97,1035.86c.27-6.16-8.45-10.47-11.18-15.87-2.72,5.4-11.45,9.71-11.18,15.87h0v27.87h22.36v-27.87h0Z"/>
              <path class="cls-5" d="M216.97,1035.86c.27-6.16-8.45-10.47-11.18-15.87-.98,1.95-2.75,3.75-4.59,5.56,3.62,4.04,9.11,7.78,8.89,12.68h0v25.5h6.88v-27.87h0Z"/>
              <path class="cls-9" d="M248.43,1035.86c.27-6.16-8.45-10.47-11.18-15.87-2.72,5.4-11.45,9.71-11.18,15.87h0v27.87h22.36v-27.87h0Z"/>
              <path class="cls-9" d="M279.89,1035.86c.28-6.16-8.45-10.47-11.18-15.87-2.72,5.4-11.45,9.71-11.18,15.87h0v27.87h22.36v-27.87h0Z"/>
              <path class="cls-9" d="M311.36,1035.86c.27-6.16-8.45-10.47-11.18-15.87-2.72,5.4-11.45,9.71-11.18,15.87h0v27.87h22.36v-27.87h0Z"/>
              <path class="cls-9" d="M342.82,1035.86c.27-6.16-8.45-10.47-11.18-15.87-2.72,5.4-11.45,9.71-11.18,15.87h0v27.87h22.36v-27.87h0Z"/>
              <path class="cls-9" d="M374.28,1035.86c.28-6.16-8.45-10.47-11.18-15.87-2.72,5.4-11.45,9.71-11.18,15.87h0v27.87h22.36v-27.87h0Z"/>
              <path class="cls-9" d="M405.74,1035.86c.28-6.16-8.45-10.47-11.18-15.87-2.72,5.4-11.45,9.71-11.18,15.87h0v27.87h22.36v-27.87h0Z"/>
              <path class="cls-10" d="M286.14,758.13h25.66c1.29,0,2.33,1.04,2.33,2.33v9.06h-30.33v-9.05c0-1.29,1.05-2.33,2.33-2.33Z"/>
              <rect class="cls-5" x="295.69" y="668.13" width="5.21" height="5.46"/>
              <rect class="cls-5" x="294.66" y="702.93" width="7.28" height="5.46"/>
              <rect class="cls-5" x="292.8" y="742.74" width="11.01" height="5.46"/>
              <path class="cls-10" d="M314.57,660.38c-15.94,0-28.86-12.92-28.86-28.85,0-4.1.87-8,2.41-11.54-7.24,5.25-11.97,13.74-11.97,23.36,0,15.93,12.92,28.86,28.85,28.86,11.83,0,21.99-7.13,26.44-17.32-4.75,3.44-10.57,5.49-16.89,5.49Z"/>
              <path class="cls-10" d="M310.69,693.27c0,6.85-5.55,12.39-12.39,12.39s-12.39-5.55-12.39-12.39,5.55-12.39,12.39-12.39,12.39,5.55,12.39,12.39Z"/>
              <circle class="cls-10" cx="298.3" cy="729.97" r="15.19" transform="translate(-10.11 4.21) rotate(-.8)"/>
              <path class="cls-5" d="M309.61,769.52h-21.31v.31c-41.13,68.53-133.37,125.82-71.91,222.27h165.31c61.56-96.6-31.06-153.92-72.1-222.58ZM300.28,774.27c4.54,15.89,10.31,31.35,15.9,46.33,9.09,24.37,18.5,49.57,22.8,77.05,4.64,29.61,2.77,58.99-5.72,89.71h-68.43c-8.49-30.72-10.36-60.1-5.72-89.71,4.31-27.48,13.71-52.68,22.8-77.05,5.59-14.99,11.36-30.45,15.9-46.33h2.46ZM201.35,940.74c-1.82-14.1-.3-27.93,4.62-42.28,9.31-27.15,29.78-52.25,49.58-76.51,12.56-15.39,25.52-31.29,35.62-47.67h1.72c-19.02,65.47-57.79,121.55-32.96,213.09h-40.9c-9.92-16.08-15.71-31.36-17.67-46.62ZM379.08,987.36h-40.9c24.83-91.54-13.94-147.62-32.96-213.09h1.72c10.1,16.39,23.06,32.28,35.62,47.67,19.8,24.27,40.27,49.36,49.58,76.51,4.92,14.36,6.43,28.19,4.62,42.28-1.97,15.26-7.75,30.54-17.67,46.62Z"/>
              <path class="cls-5" d="M248.43,1035.86c.27-6.16-8.45-10.47-11.18-15.87-.98,1.95-2.75,3.75-4.59,5.56,3.62,4.04,9.11,7.78,8.89,12.68h0v25.5h6.88v-27.87h0Z"/>
              <path class="cls-5" d="M279.89,1035.86c.28-6.16-8.45-10.47-11.18-15.87-.98,1.95-2.75,3.75-4.59,5.56,3.62,4.04,9.11,7.78,8.89,12.68h0v25.5h6.88v-27.87h0Z"/>
              <path class="cls-5" d="M311.36,1035.86c.27-6.16-8.45-10.47-11.18-15.87-.98,1.95-2.75,3.75-4.59,5.56,3.62,4.04,9.11,7.78,8.89,12.68h0v25.5h6.88v-27.87h0Z"/>
              <path class="cls-5" d="M342.82,1035.86c.27-6.16-8.45-10.47-11.18-15.87-.98,1.95-2.75,3.75-4.59,5.56,3.62,4.04,9.11,7.78,8.89,12.68h0v25.5h6.88v-27.87h0Z"/>
              <path class="cls-5" d="M374.28,1035.86c.28-6.16-8.45-10.47-11.18-15.87-.98,1.95-2.75,3.75-4.59,5.56,3.62,4.04,9.11,7.78,8.89,12.68h0v25.5h6.88v-27.87h0Z"/>
              <path class="cls-5" d="M405.74,1035.86c.28-6.16-8.45-10.47-11.18-15.87-.98,1.95-2.75,3.75-4.59,5.56,3.62,4.04,9.1,7.78,8.89,12.68h0v25.5h6.88v-27.87h0Z"/>
            </g>
            <rect class="cls-5" x="182.2" y="1011" width="231.33" height="3.46" transform="translate(595.73 2025.46) rotate(180)"/>
          </g>
          <rect class="cls-6" x="65.37" y="1079.55" width="464.29" height="274.85" transform="translate(595.03 2433.95) rotate(180)"/>
          <rect class="cls-10" x="57.78" y="1092.68" width="471.88" height="13.29" transform="translate(587.44 2198.64) rotate(180)"/>
          <rect class="cls-5" x="65.37" y="1105.96" width="464.29" height="4.59" transform="translate(595.03 2216.52) rotate(180)"/>
          <rect class="cls-2" x="65.37" y="1322.83" width="462.62" height="31.58" transform="translate(593.36 2677.23) rotate(180)"/>
          <g>
            <path class="cls-9" d="M437.96,1145.09h60.26v191.17c0,10.01-8.13,18.15-18.15,18.15h-23.97c-10.02,0-18.15-8.13-18.15-18.15v-191.17h0Z" transform="translate(936.19 2499.49) rotate(180)"/>
            <path class="cls-10" d="M468.09,1136.02c21.62,0,39.2,17.59,39.2,39.2v179.18h-9.07v-179.18c0-16.64-13.49-30.13-30.13-30.13s-30.13,13.49-30.13,30.13v134.27h0v44.92h-9.07v-179.18c0-21.61,17.58-39.2,39.2-39.2Z"/>
            <path class="cls-5" d="M468.09,1145.09h0c8.92,0,16.92,3.87,22.44,10.03-.41-.02-.83-.03-1.24-.03h0c-16.64,0-30.13,13.49-30.13,30.13v169.18h-21.2v-179.18c0-16.64,13.49-30.13,30.13-30.13Z"/>
          </g>
          <g>
            <path class="cls-9" d="M328.47,1145.09h60.26v191.17c0,10.02-8.13,18.15-18.15,18.15h-23.97c-10.01,0-18.15-8.13-18.15-18.15v-191.17h0Z" transform="translate(717.21 2499.49) rotate(180)"/>
            <path class="cls-10" d="M358.6,1136.02c21.62,0,39.2,17.59,39.2,39.2v179.18h-9.07v-179.18c0-16.64-13.49-30.13-30.13-30.13s-30.13,13.49-30.13,30.13v134.27h0v44.92h-9.07v-179.18c0-21.61,17.58-39.2,39.2-39.2Z"/>
            <path class="cls-5" d="M358.6,1145.09h0c8.91,0,16.92,3.87,22.44,10.03-.41-.02-.83-.03-1.24-.03h0c-16.64,0-30.13,13.49-30.13,30.13v169.18h-21.2v-179.18c0-16.64,13.49-30.13,30.13-30.13Z"/>
          </g>
          <g>
            <path class="cls-9" d="M218.99,1145.09h60.26v191.17c0,10.02-8.13,18.15-18.15,18.15h-23.97c-10.02,0-18.15-8.13-18.15-18.15v-191.17h0Z" transform="translate(498.23 2499.49) rotate(180)"/>
            <path class="cls-10" d="M249.12,1136.02c21.62,0,39.2,17.59,39.2,39.2v179.18h-9.07v-179.18c0-16.64-13.49-30.13-30.13-30.13s-30.13,13.49-30.13,30.13v134.27h0v44.92h-9.07v-179.18c0-21.61,17.59-39.2,39.2-39.2Z"/>
            <path class="cls-5" d="M249.12,1145.09h0c8.92,0,16.92,3.87,22.44,10.03-.41-.02-.83-.03-1.24-.03h0c-16.64,0-30.13,13.49-30.13,30.13v169.18h-21.2v-179.18c0-16.64,13.49-30.13,30.13-30.13Z"/>
          </g>
          <g>
            <path class="cls-9" d="M109.5,1145.09h60.26v191.17c0,10.01-8.13,18.15-18.15,18.15h-23.97c-10.02,0-18.15-8.13-18.15-18.15v-191.17h0Z" transform="translate(279.26 2499.49) rotate(180)"/>
            <path class="cls-10" d="M139.63,1136.02c21.62,0,39.2,17.59,39.2,39.2v179.18h-9.07v-179.18c0-16.64-13.49-30.13-30.13-30.13s-30.13,13.49-30.13,30.13v134.27h0v44.92h-9.07v-179.18c0-21.61,17.59-39.2,39.2-39.2Z"/>
            <path class="cls-5" d="M139.63,1145.09h0c8.92,0,16.92,3.87,22.44,10.03-.41-.02-.83-.03-1.24-.03h0c-16.64,0-30.13,13.49-30.13,30.13v169.18h-21.2v-179.18c0-16.64,13.49-30.13,30.13-30.13Z"/>
          </g>
          <rect class="cls-2" x="62.28" y="1071.17" width="467.37" height="8.38" transform="translate(591.94 2150.71) rotate(180)"/>
          <rect class="cls-2" x="59.44" y="1062.78" width="470.22" height="8.38" transform="translate(589.1 2133.95) rotate(180)"/>
          <rect class="cls-5" x="62.28" y="1071.17" width="467.37" height="3.08" transform="translate(591.94 2145.41) rotate(180)"/>
          <rect class="cls-5" x="65.37" y="1079.55" width="464.29" height="3.09" transform="translate(595.03 2162.18) rotate(180)"/>
        </g>
        <polygon class="cls-5" points="507.29 1354.4 529.66 1354.4 529.66 1062.78 524.36 1062.78 507.29 1354.4"/>
        <g>
          <rect class="cls-11" x="1374.48" y="338.33" width="108.09" height="1016.07"/>
          <g>
            <g>
              <rect class="cls-4" x="1425.24" y="173.44" width="5.13" height="16.13"/>
              <rect class="cls-4" x="1426.11" y="158.81" width="3.39" height="16.13"/>
              <rect class="cls-4" x="1426.59" y="145.32" width="2.43" height="16.13"/>
              <path class="cls-1" d="M1435.13,193.36h-14.07v.15c-27.17,31.91-88.1,58.59-47.5,103.51h-2.46v8.8h114.1v-8.8h-2.46c40.66-44.98-20.51-71.68-47.62-103.66Z"/>
              <path class="cls-5" d="M1428.12,193.36h-7.06v.15c-27.17,31.91-88.1,58.59-47.5,103.51h-2.46v8.8h57.01v-112.45Z"/>
              <rect class="cls-11" x="1374.85" y="305.81" width="107.73" height="24.56"/>
              <rect class="cls-10" x="1371.11" y="297.01" width="114.1" height="8.8"/>
              <path class="cls-10" d="M1423.39,188.05h9.46c1.29,0,2.33,1.05,2.33,2.33v2.97h-14.12v-2.97c0-1.29,1.05-2.33,2.33-2.33Z"/>
              <rect class="cls-5" x="1426.59" y="146.14" width="2.43" height="2.54"/>
              <rect class="cls-5" x="1426.11" y="162.35" width="3.39" height="2.54"/>
              <rect class="cls-5" x="1425.24" y="180.88" width="5.13" height="2.54"/>
              <path class="cls-10" d="M1435.38,142.53c-7.42,0-13.44-6.02-13.44-13.44,0-1.91.4-3.73,1.12-5.37-3.37,2.44-5.57,6.4-5.57,10.88,0,7.42,6.01,13.44,13.44,13.44,5.51,0,10.24-3.32,12.31-8.07-2.21,1.6-4.92,2.56-7.86,2.56Z"/>
              <path class="cls-10" d="M1433.58,157.85c0,3.19-2.58,5.77-5.77,5.77s-5.77-2.58-5.77-5.77,2.58-5.77,5.77-5.77,5.77,2.58,5.77,5.77Z"/>
              <path class="cls-10" d="M1434.88,174.94c0,3.91-3.17,7.08-7.07,7.08s-7.07-3.17-7.07-7.08,3.17-7.08,7.07-7.08,7.07,3.17,7.07,7.08Z"/>
              <path class="cls-5" d="M1433.07,193.36h-9.92v.15c-19.15,31.91-62.11,58.59-33.48,103.51h76.98c28.67-44.98-14.46-71.68-33.57-103.66ZM1428.73,195.57c2.12,7.4,4.8,14.6,7.41,21.58,4.24,11.35,8.61,23.09,10.62,35.88,2.16,13.79,1.29,27.47-2.66,41.78h-31.87c-3.96-14.31-4.82-27.99-2.66-41.78,2.01-12.8,6.38-24.53,10.62-35.88,2.6-6.98,5.29-14.18,7.41-21.58h1.15ZM1382.66,273.09c-.85-6.57-.14-13,2.15-19.69,4.34-12.65,13.87-24.33,23.09-35.63,5.85-7.17,11.89-14.57,16.59-22.2h.8c-8.86,30.49-26.91,56.61-15.35,99.24h-19.05c-4.62-7.49-7.31-14.6-8.23-21.71ZM1465.43,294.8h-19.05c11.56-42.63-6.49-68.75-15.35-99.24h.8c4.7,7.63,10.74,15.03,16.59,22.2,9.22,11.3,18.75,22.99,23.09,35.63,2.29,6.68,2.99,13.13,2.15,19.69-.92,7.11-3.61,14.22-8.23,21.71Z"/>
            </g>
            <rect class="cls-5" x="1374.85" y="305.81" width="107.73" height="1.61"/>
          </g>
          <polygon class="cls-2" points="1494.06 828.51 1363 828.51 1374.48 857.47 1482.57 857.47 1494.06 828.51"/>
          <rect class="cls-2" x="1363" y="787.87" width="131.06" height="40.64"/>
          <path class="cls-7" d="M1363,787.87v40.64h131.06v-40.64h-131.06ZM1377.51,817.02h-10.6v-25.63h10.6v25.63ZM1391.59,817.02h-10.6v-25.63h10.6v25.63ZM1405.67,817.02h-10.6v-25.63h10.6v25.63ZM1419.75,817.02h-10.6v-25.63h10.6v25.63ZM1433.82,817.02h-10.6v-25.63h10.6v25.63ZM1447.9,817.02h-10.6v-25.63h10.6v25.63ZM1461.98,817.02h-10.6v-25.63h10.6v25.63ZM1476.06,817.02h-10.6v-25.63h10.6v25.63ZM1490.14,817.02h-10.6v-25.63h10.6v25.63Z"/>
          <g>
            <path class="cls-2" d="M1371.28,774.48c-4.55,3.69-4.36,9.11-4.36,9.11v4.27h4.36s4.36,0,4.36,0v-4.27s.18-5.42-4.36-9.11Z"/>
            <path class="cls-2" d="M1382.73,774.48c-4.55,3.69-4.36,9.11-4.36,9.11v4.27h4.36s4.37,0,4.37,0v-4.27s.18-5.42-4.37-9.11Z"/>
            <path class="cls-2" d="M1394.18,774.48c-4.55,3.69-4.36,9.11-4.36,9.11v4.27h4.36s4.37,0,4.37,0v-4.27s.18-5.42-4.37-9.11Z"/>
            <path class="cls-2" d="M1405.63,774.48c-4.55,3.69-4.37,9.11-4.37,9.11v4.27h4.37s4.37,0,4.37,0v-4.27s.18-5.42-4.37-9.11Z"/>
            <path class="cls-2" d="M1417.08,774.48c-4.55,3.69-4.37,9.11-4.37,9.11v4.27h4.37s4.36,0,4.36,0v-4.27s.18-5.42-4.36-9.11Z"/>
            <path class="cls-2" d="M1428.53,774.48c-4.55,3.69-4.37,9.11-4.37,9.11v4.27h4.37s4.36,0,4.36,0v-4.27s.18-5.42-4.36-9.11Z"/>
            <path class="cls-2" d="M1439.97,774.48c-4.55,3.69-4.36,9.11-4.36,9.11v4.27h4.36s4.36,0,4.36,0v-4.27s.18-5.42-4.36-9.11Z"/>
            <path class="cls-2" d="M1451.42,774.48c-4.55,3.69-4.36,9.11-4.36,9.11v4.27h4.36s4.37,0,4.37,0v-4.27s.18-5.42-4.37-9.11Z"/>
            <path class="cls-2" d="M1462.87,774.48c-4.55,3.69-4.36,9.11-4.36,9.11v4.27h4.36s4.37,0,4.37,0v-4.27s.18-5.42-4.37-9.11Z"/>
            <path class="cls-2" d="M1474.32,774.48c-4.55,3.69-4.37,9.11-4.37,9.11v4.27h4.37s4.36,0,4.36,0v-4.27s.18-5.42-4.36-9.11Z"/>
            <path class="cls-2" d="M1485.77,774.48c-4.55,3.69-4.37,9.11-4.37,9.11v4.27h4.37s4.36,0,4.36,0v-4.27s.18-5.42-4.36-9.11Z"/>
          </g>
          <polygon class="cls-2" points="1494.06 547.59 1363 547.59 1374.48 576.55 1482.57 576.55 1494.06 547.59"/>
          <rect class="cls-2" x="1363" y="506.94" width="131.06" height="40.65"/>
          <path class="cls-7" d="M1363,506.94v40.65h131.06v-40.65h-131.06ZM1377.51,536.1h-10.6v-25.62h10.6v25.62ZM1391.59,536.1h-10.6v-25.62h10.6v25.62ZM1405.67,536.1h-10.6v-25.62h10.6v25.62ZM1419.75,536.1h-10.6v-25.62h10.6v25.62ZM1433.82,536.1h-10.6v-25.62h10.6v25.62ZM1447.9,536.1h-10.6v-25.62h10.6v25.62ZM1461.98,536.1h-10.6v-25.62h10.6v25.62ZM1476.06,536.1h-10.6v-25.62h10.6v25.62ZM1490.14,536.1h-10.6v-25.62h10.6v25.62Z"/>
          <g>
            <path class="cls-2" d="M1371.28,493.56c-4.55,3.69-4.36,9.11-4.36,9.11v4.27h4.36s4.36,0,4.36,0v-4.27s.18-5.42-4.36-9.11Z"/>
            <path class="cls-2" d="M1382.73,493.56c-4.55,3.69-4.36,9.11-4.36,9.11v4.27h4.36s4.37,0,4.37,0v-4.27s.18-5.42-4.37-9.11Z"/>
            <path class="cls-2" d="M1394.18,493.56c-4.55,3.69-4.36,9.11-4.36,9.11v4.27h4.36s4.37,0,4.37,0v-4.27s.18-5.42-4.37-9.11Z"/>
            <path class="cls-2" d="M1405.63,493.56c-4.55,3.69-4.37,9.11-4.37,9.11v4.27h4.37s4.37,0,4.37,0v-4.27s.18-5.42-4.37-9.11Z"/>
            <path class="cls-2" d="M1417.08,493.56c-4.55,3.69-4.37,9.11-4.37,9.11v4.27h4.37s4.36,0,4.36,0v-4.27s.18-5.42-4.36-9.11Z"/>
            <path class="cls-2" d="M1428.53,493.56c-4.55,3.69-4.37,9.11-4.37,9.11v4.27h4.37s4.36,0,4.36,0v-4.27s.18-5.42-4.36-9.11Z"/>
            <path class="cls-2" d="M1439.97,493.56c-4.55,3.69-4.36,9.11-4.36,9.11v4.27h4.36s4.36,0,4.36,0v-4.27s.18-5.42-4.36-9.11Z"/>
            <path class="cls-2" d="M1451.42,493.56c-4.55,3.69-4.36,9.11-4.36,9.11v4.27h4.36s4.37,0,4.37,0v-4.27s.18-5.42-4.37-9.11Z"/>
            <path class="cls-2" d="M1462.87,493.56c-4.55,3.69-4.36,9.11-4.36,9.11v4.27h4.36s4.37,0,4.37,0v-4.27s.18-5.42-4.37-9.11Z"/>
            <path class="cls-2" d="M1474.32,493.56c-4.55,3.69-4.37,9.11-4.37,9.11v4.27h4.37s4.36,0,4.36,0v-4.27s.18-5.42-4.36-9.11Z"/>
            <path class="cls-2" d="M1485.77,493.56c-4.55,3.69-4.37,9.11-4.37,9.11v4.27h4.37s4.36,0,4.36,0v-4.27s.18-5.42-4.36-9.11Z"/>
          </g>
          <rect class="cls-10" x="1369.73" y="328.2" width="117.59" height="10.12"/>
          <rect class="cls-5" x="1374.48" y="338.33" width="108.09" height="3.8"/>
          <g>
            <path class="cls-9" d="M1424.37,383.12h10.1c6.55,0,11.86,5.31,11.86,11.86v54.58h-33.82v-54.58c0-6.55,5.31-11.86,11.86-11.86Z"/>
            <path class="cls-5" d="M1429.76,383.12h-.68c-4.71,0-8.95,1.96-11.97,5.11.28-.01.57-.02.85-.02h.68c9.15,0,16.57,7.42,16.57,16.57v44.78h11.11v-49.87c0-9.15-7.42-16.57-16.57-16.57Z"/>
            <path class="cls-7" d="M1429.42,378.02c-12.13,0-22,9.87-22,22v54.63h44v-54.63c0-12.13-9.87-22-22-22ZM1446.33,449.56h-33.82v-49.54c0-9.34,7.57-16.91,16.91-16.91s16.91,7.57,16.91,16.91v49.54Z"/>
          </g>
          <g>
            <path class="cls-9" d="M1424.37,637.64h10.1c6.55,0,11.86,5.31,11.86,11.86v54.59h-33.82v-54.59c0-6.55,5.31-11.86,11.86-11.86Z"/>
            <path class="cls-5" d="M1429.76,637.64h-.68c-4.71,0-8.95,1.96-11.97,5.11.28-.02.57-.02.85-.02h.68c9.15,0,16.57,7.42,16.57,16.57v44.78h11.11v-49.87c0-9.15-7.42-16.57-16.57-16.57Z"/>
            <path class="cls-7" d="M1429.42,632.54c-12.13,0-22,9.87-22,22v54.63h44v-54.63c0-12.13-9.87-22-22-22ZM1446.33,704.08h-33.82v-49.54c0-9.34,7.57-16.91,16.91-16.91s16.91,7.57,16.91,16.91v49.54Z"/>
          </g>
        </g>
        <g>
          <rect class="cls-4" x="743.23" y="453" width="17.42" height="54.81"/>
          <rect class="cls-4" x="746.19" y="403.29" width="11.51" height="54.8"/>
          <rect class="cls-4" x="747.82" y="357.45" width="8.25" height="54.8"/>
          <path class="cls-1" d="M776.83,520.68h-47.83v.49c-92.31,108.43-299.33,199.08-161.38,351.7h-8.34v29.89h387.69v-29.89h-8.34c138.17-152.85-69.7-243.54-161.8-352.19Z"/>
          <path class="cls-5" d="M753,520.68h-23.99v.49c-92.31,108.43-299.33,199.08-161.38,351.7h-8.34v29.89h193.71v-382.09Z"/>
          <rect class="cls-6" x="572" y="902.76" width="366.03" height="83.44"/>
          <rect class="cls-10" x="559.29" y="872.87" width="387.69" height="29.89"/>
          <path class="cls-9" d="M623.25,942.11c.43-9.75-13.38-16.57-17.69-25.11-4.31,8.54-18.12,15.36-17.69,25.11h0v44.09h35.38v-44.09h0Z"/>
          <path class="cls-5" d="M623.25,942.11c.43-9.75-13.38-16.57-17.69-25.11-1.78,3.53-5.18,6.77-8.53,10.03,5.57,7.05,15.84,13.29,15.46,21.72h0v37.45h10.76v-44.09h0Z"/>
          <path class="cls-9" d="M673.03,942.11c.43-9.75-13.37-16.57-17.69-25.11-4.31,8.54-18.12,15.36-17.68,25.11h0v44.09h35.38v-44.09h0Z"/>
          <path class="cls-9" d="M722.82,942.11c.43-9.75-13.38-16.57-17.68-25.11-4.31,8.54-18.12,15.36-17.69,25.11h0v44.09h35.39v-44.09h0Z"/>
          <path class="cls-9" d="M772.6,942.11c.43-9.75-13.38-16.57-17.69-25.11-4.31,8.54-18.12,15.36-17.69,25.11h0v44.09h35.38v-44.09h0Z"/>
          <path class="cls-9" d="M822.38,942.11c.43-9.75-13.37-16.57-17.69-25.11-4.31,8.54-18.12,15.36-17.68,25.11h0v44.09h35.38v-44.09h0Z"/>
          <path class="cls-9" d="M872.17,942.11c.43-9.75-13.38-16.57-17.69-25.11-4.31,8.54-18.12,15.36-17.69,25.11h0v44.09h35.38v-44.09h0Z"/>
          <path class="cls-9" d="M921.95,942.11c.43-9.75-13.37-16.57-17.69-25.11-4.31,8.54-18.12,15.36-17.68,25.11h0v44.09h35.38v-44.09h0Z"/>
          <path class="cls-10" d="M731.34,502.66h43.32c1.29,0,2.33,1.04,2.33,2.33v15.69h-47.99v-15.69c0-1.29,1.04-2.33,2.33-2.33Z"/>
          <rect class="cls-5" x="747.82" y="360.25" width="8.25" height="8.63"/>
          <rect class="cls-5" x="746.19" y="415.32" width="11.51" height="8.63"/>
          <rect class="cls-5" x="743.23" y="478.3" width="17.42" height="8.64"/>
          <path class="cls-10" d="M777.68,347.99c-25.22,0-45.66-20.44-45.66-45.66,0-6.49,1.38-12.66,3.82-18.25-11.46,8.3-18.94,21.75-18.94,36.97,0,25.22,20.44,45.66,45.66,45.66,18.72,0,34.79-11.28,41.84-27.41-7.52,5.44-16.73,8.69-26.72,8.69Z"/>
          <path class="cls-10" d="M771.55,400.03c0,10.83-8.78,19.61-19.61,19.61s-19.61-8.78-19.61-19.61,8.78-19.61,19.61-19.61,19.61,8.78,19.61,19.61Z"/>
          <circle class="cls-10" cx="751.94" cy="458.09" r="24.04"/>
          <path class="cls-5" d="M769.84,520.68h-33.72v.49c-65.08,108.43-211.04,199.08-113.78,351.7h261.57c97.41-152.85-49.14-243.54-114.08-352.19ZM755.08,528.19c7.19,25.14,16.32,49.6,25.17,73.31,14.39,38.56,29.26,78.43,36.08,121.92,7.34,46.85,4.38,93.34-9.05,141.95h-108.28c-13.44-48.61-16.4-95.1-9.05-141.95,6.82-43.49,21.69-83.36,36.08-121.91,8.85-23.71,17.97-48.18,25.17-73.31h3.89ZM598.54,791.59c-2.87-22.3-.48-44.19,7.3-66.9,14.73-42.96,47.12-82.67,78.44-121.07,19.87-24.35,40.38-49.51,56.36-75.43h2.72c-30.1,103.59-91.44,192.33-52.16,337.17h-64.71c-15.7-25.44-24.85-49.62-27.96-73.77ZM879.76,865.36h-64.71c39.29-144.84-22.05-233.58-52.16-337.17h2.72c15.98,25.93,36.49,51.08,56.36,75.43,31.32,38.4,63.72,78.1,78.45,121.07,7.79,22.72,10.18,44.6,7.3,66.9-3.11,24.16-12.27,48.32-27.96,73.77Z"/>
          <path class="cls-5" d="M673.03,942.11c.43-9.75-13.37-16.57-17.69-25.11-1.78,3.53-5.18,6.77-8.53,10.03,5.57,7.05,15.84,13.29,15.46,21.72h0v37.45h10.76v-44.09h0Z"/>
          <path class="cls-5" d="M722.82,942.11c.43-9.75-13.38-16.57-17.68-25.11-1.78,3.53-5.18,6.77-8.53,10.03,5.57,7.05,15.84,13.29,15.46,21.72h.01v37.45h10.76v-44.09h0Z"/>
          <path class="cls-5" d="M772.6,942.11c.43-9.75-13.38-16.57-17.69-25.11-1.78,3.53-5.18,6.77-8.53,10.03,5.57,7.05,15.84,13.29,15.46,21.72h0v37.45h10.76v-44.09h0Z"/>
          <path class="cls-5" d="M822.38,942.11c.43-9.75-13.37-16.57-17.69-25.11-1.78,3.53-5.18,6.77-8.53,10.03,5.58,7.05,15.84,13.29,15.46,21.72h0v37.45h10.76v-44.09h0Z"/>
          <path class="cls-5" d="M872.17,942.11c.43-9.75-13.38-16.57-17.69-25.11-1.78,3.53-5.18,6.77-8.53,10.03,5.57,7.05,15.84,13.29,15.46,21.72h0v37.45h10.76v-44.09h0Z"/>
          <path class="cls-5" d="M921.95,942.11c.43-9.75-13.37-16.57-17.69-25.11-1.78,3.53-5.18,6.77-8.53,10.03,5.57,7.05,15.84,13.29,15.46,21.72h0v37.45h10.76v-44.09h0Z"/>
        </g>
        <rect class="cls-3" y="1365.34" width="1500" height="10.94"/>
        <rect class="cls-12" x="7.8" y="1354.4" width="1484.4" height="10.94"/>
        <rect class="cls-8" x="529.58" y="1002.77" width="452.51" height="351.63"/>
        <path class="cls-9" d="M566.04,1133.53v220.87h102.23v-220.87h-.02c1.25-23.48-38.65-39.91-51.1-60.47-12.45,20.57-52.34,36.99-51.09,60.47h-.02Z"/>
        <path class="cls-5" d="M617.16,1073.06c-5.09,8.4-14.76,16.12-24.33,23.9,16.02,17.15,46.15,32.25,45.06,52.7h.02v204.74h30.37v-220.87h-.02c1.25-23.48-38.65-39.91-51.1-60.47Z"/>
        <path class="cls-9" d="M704.67,1133.53v220.87h102.23v-220.87h-.02c1.25-23.48-38.64-39.91-51.1-60.47-12.45,20.57-52.35,36.99-51.09,60.47h-.02Z"/>
        <path class="cls-9" d="M843.39,1133.53v220.87h102.23v-220.87h-.02c1.25-23.48-38.64-39.91-51.1-60.47-12.45,20.57-52.35,36.99-51.09,60.47h-.02Z"/>
        <g>
          <rect class="cls-10" x="524.36" y="1136.02" width="46.91" height="12.34"/>
          <rect class="cls-10" x="524.36" y="1295.46" width="46.91" height="12.33"/>
          <rect class="cls-7" x="527.92" y="1307.8" width="39.79" height="46.61"/>
          <rect class="cls-5" x="529.58" y="1148.36" width="36.46" height="4.27"/>
          <rect class="cls-5" x="527.91" y="1307.8" width="39.8" height="4.27"/>
        </g>
        <g>
          <rect class="cls-10" x="663.04" y="1136.02" width="46.91" height="12.34"/>
          <rect class="cls-10" x="663.04" y="1295.46" width="46.91" height="12.33"/>
          <rect class="cls-7" x="666.6" y="1307.8" width="39.79" height="46.61"/>
          <rect class="cls-5" x="668.26" y="1148.36" width="36.46" height="4.27"/>
          <rect class="cls-5" x="666.59" y="1307.8" width="39.8" height="4.27"/>
        </g>
        <path class="cls-5" d="M755.78,1073.06c-5.09,8.4-14.76,16.12-24.33,23.9,16.02,17.15,46.15,32.25,45.06,52.7h.02v204.74h30.37v-220.87h-.02c1.25-23.48-38.64-39.91-51.1-60.47Z"/>
        <path class="cls-5" d="M894.5,1073.06c-5.09,8.4-14.76,16.12-24.33,23.9,16.02,17.15,46.15,32.25,45.06,52.7h.02v204.74h30.37v-220.87h-.02c1.25-23.48-38.64-39.91-51.1-60.47Z"/>
        <g>
          <rect class="cls-10" x="801.69" y="1136.02" width="46.9" height="12.34"/>
          <rect class="cls-10" x="801.69" y="1295.46" width="46.9" height="12.33"/>
          <rect class="cls-7" x="805.25" y="1307.8" width="39.79" height="46.61"/>
          <rect class="cls-5" x="806.91" y="1148.36" width="36.46" height="4.27"/>
          <rect class="cls-5" x="805.24" y="1307.8" width="39.8" height="4.27"/>
        </g>
        <g>
          <rect class="cls-10" x="940.41" y="1136.02" width="46.91" height="12.34"/>
          <rect class="cls-10" x="940.41" y="1295.46" width="46.91" height="12.33"/>
          <rect class="cls-7" x="943.97" y="1307.8" width="39.79" height="46.61"/>
          <rect class="cls-5" x="945.63" y="1148.36" width="36.46" height="4.27"/>
          <rect class="cls-5" x="943.96" y="1307.8" width="39.8" height="4.27"/>
        </g>
        <g>
          <g>
            <g>
              <rect class="cls-4" x="1206.44" y="726.75" width="11.01" height="34.63"/>
              <rect class="cls-4" x="1208.3" y="695.33" width="7.27" height="34.63"/>
              <rect class="cls-4" x="1209.33" y="666.36" width="5.21" height="34.63"/>
              <path class="cls-1" d="M1227.67,769.52h-30.23v.31c-58.34,68.53-189.18,125.82-101.99,222.27h-5.27v18.9h245.02v-18.9h-5.27c87.32-96.6-44.05-153.92-102.26-222.58Z"/>
              <path class="cls-5" d="M1212.61,769.52h-15.16v.31c-58.34,68.53-189.18,125.82-101.99,222.27h-5.27v18.9h122.43v-241.48Z"/>
              <rect class="cls-6" x="1098.22" y="1011" width="231.33" height="52.73"/>
              <rect class="cls-10" x="1090.19" y="992.1" width="245.02" height="18.9"/>
              <path class="cls-9" d="M1130.61,1035.86c.27-6.16-8.45-10.47-11.18-15.87-2.72,5.4-11.45,9.71-11.18,15.87h0v27.87h22.36v-27.87h0Z"/>
              <path class="cls-5" d="M1130.61,1035.86c.27-6.16-8.45-10.47-11.18-15.87-.98,1.95-2.75,3.75-4.59,5.56,3.62,4.04,9.11,7.78,8.89,12.68h0v25.5h6.88v-27.87h0Z"/>
              <path class="cls-9" d="M1162.07,1035.86c.27-6.16-8.45-10.47-11.18-15.87-2.72,5.4-11.45,9.71-11.18,15.87h0v27.87h22.36v-27.87h0Z"/>
              <path class="cls-9" d="M1193.53,1035.86c.28-6.16-8.45-10.47-11.18-15.87-2.72,5.4-11.45,9.71-11.18,15.87h0v27.87h22.36v-27.87h0Z"/>
              <path class="cls-9" d="M1225,1035.86c.28-6.16-8.45-10.47-11.18-15.87-2.72,5.4-11.45,9.71-11.18,15.87h0v27.87h22.36v-27.87h0Z"/>
              <path class="cls-9" d="M1256.46,1035.86c.27-6.16-8.45-10.47-11.18-15.87-2.72,5.4-11.45,9.71-11.18,15.87h0v27.87h22.36v-27.87h0Z"/>
              <path class="cls-9" d="M1287.92,1035.86c.27-6.16-8.45-10.47-11.18-15.87-2.72,5.4-11.45,9.71-11.18,15.87h0v27.87h22.36v-27.87h0Z"/>
              <path class="cls-9" d="M1319.39,1035.86c.28-6.16-8.45-10.47-11.18-15.87-2.72,5.4-11.45,9.71-11.18,15.87h0v27.87h22.36v-27.87h0Z"/>
              <path class="cls-10" d="M1199.78,758.13h25.66c1.29,0,2.33,1.04,2.33,2.33v9.06h-30.33v-9.05c0-1.29,1.05-2.33,2.33-2.33Z"/>
              <rect class="cls-5" x="1209.33" y="668.13" width="5.21" height="5.46"/>
              <rect class="cls-5" x="1208.3" y="702.93" width="7.27" height="5.46"/>
              <rect class="cls-5" x="1206.44" y="742.74" width="11.01" height="5.46"/>
              <path class="cls-10" d="M1228.21,660.38c-15.94,0-28.85-12.92-28.85-28.85,0-4.1.87-8,2.41-11.54-7.24,5.25-11.97,13.74-11.97,23.36,0,15.93,12.92,28.86,28.85,28.86,11.83,0,21.99-7.13,26.44-17.32-4.75,3.44-10.57,5.49-16.89,5.49Z"/>
              <path class="cls-10" d="M1224.34,693.27c0,6.85-5.55,12.39-12.39,12.39s-12.39-5.55-12.39-12.39,5.55-12.39,12.39-12.39,12.39,5.55,12.39,12.39Z"/>
              <path class="cls-10" d="M1227.14,729.97c0,8.39-6.8,15.19-15.19,15.19s-15.19-6.8-15.19-15.19,6.8-15.19,15.19-15.19,15.19,6.8,15.19,15.19Z"/>
              <path class="cls-5" d="M1223.26,769.52h-21.31v.31c-41.13,68.53-133.37,125.82-71.91,222.27h165.31c61.56-96.6-31.06-153.92-72.1-222.58ZM1213.93,774.27c4.54,15.89,10.31,31.35,15.9,46.33,9.09,24.37,18.5,49.57,22.8,77.05,4.64,29.61,2.77,58.99-5.72,89.71h-68.43c-8.49-30.72-10.36-60.1-5.72-89.71,4.31-27.48,13.71-52.68,22.8-77.05,5.59-14.99,11.36-30.45,15.9-46.33h2.46ZM1114.99,940.74c-1.81-14.1-.3-27.93,4.62-42.28,9.31-27.15,29.78-52.25,49.58-76.51,12.56-15.39,25.52-31.29,35.62-47.67h1.72c-19.02,65.47-57.79,121.55-32.96,213.09h-40.9c-9.92-16.08-15.71-31.36-17.67-46.62ZM1292.73,987.36h-40.9c24.83-91.54-13.94-147.62-32.96-213.09h1.72c10.1,16.39,23.06,32.28,35.62,47.67,19.8,24.27,40.27,49.36,49.58,76.51,4.92,14.36,6.43,28.19,4.62,42.28-1.97,15.26-7.75,30.54-17.67,46.62Z"/>
              <path class="cls-5" d="M1162.07,1035.86c.27-6.16-8.45-10.47-11.18-15.87-.98,1.95-2.75,3.75-4.59,5.56,3.62,4.04,9.11,7.78,8.89,12.68h0v25.5h6.88v-27.87h0Z"/>
              <path class="cls-5" d="M1193.53,1035.86c.28-6.16-8.45-10.47-11.18-15.87-.98,1.95-2.75,3.75-4.59,5.56,3.62,4.04,9.11,7.78,8.89,12.68h0v25.5h6.88v-27.87h0Z"/>
              <path class="cls-5" d="M1225,1035.86c.28-6.16-8.45-10.47-11.18-15.87-.98,1.95-2.75,3.75-4.59,5.56,3.62,4.04,9.1,7.78,8.89,12.68h0v25.5h6.88v-27.87h0Z"/>
              <path class="cls-5" d="M1256.46,1035.86c.27-6.16-8.45-10.47-11.18-15.87-.98,1.95-2.75,3.75-4.59,5.56,3.62,4.04,9.11,7.78,8.89,12.68h0v25.5h6.88v-27.87h0Z"/>
              <path class="cls-5" d="M1287.92,1035.86c.27-6.16-8.45-10.47-11.18-15.87-.98,1.95-2.75,3.75-4.59,5.56,3.62,4.04,9.11,7.78,8.89,12.68h0v25.5h6.88v-27.87h0Z"/>
              <path class="cls-5" d="M1319.39,1035.86c.28-6.16-8.45-10.47-11.18-15.87-.98,1.95-2.75,3.75-4.59,5.56,3.62,4.04,9.11,7.78,8.89,12.68h0v25.5h6.88v-27.87h0Z"/>
            </g>
            <rect class="cls-5" x="1098.22" y="1011" width="231.33" height="3.46"/>
          </g>
          <rect class="cls-6" x="982.09" y="1079.55" width="464.29" height="274.85"/>
          <rect class="cls-10" x="982.09" y="1092.68" width="471.88" height="13.29"/>
          <rect class="cls-5" x="982.09" y="1105.96" width="464.29" height="4.59"/>
          <rect class="cls-2" x="983.76" y="1322.83" width="462.62" height="31.58"/>
          <g>
            <path class="cls-9" d="M1031.67,1145.09h23.97c10.02,0,18.15,8.13,18.15,18.15v191.17h-60.26v-191.17c0-10.02,8.13-18.15,18.15-18.15Z"/>
            <path class="cls-10" d="M1043.66,1136.02c-21.61,0-39.2,17.59-39.2,39.2v179.18h9.07v-179.18c0-16.64,13.49-30.13,30.13-30.13s30.13,13.49,30.13,30.13v134.27h0v44.92h9.07v-179.18c0-21.61-17.59-39.2-39.2-39.2Z"/>
            <path class="cls-5" d="M1043.66,1145.09h0c-8.91,0-16.92,3.87-22.44,10.03.41-.02.83-.03,1.24-.03h0c16.64,0,30.13,13.49,30.13,30.13v169.18h21.2v-179.18c0-16.64-13.49-30.13-30.13-30.13Z"/>
          </g>
          <g>
            <path class="cls-9" d="M1141.16,1145.09h23.97c10.02,0,18.15,8.13,18.15,18.15v191.17h-60.26v-191.17c0-10.02,8.13-18.15,18.15-18.15Z"/>
            <path class="cls-10" d="M1153.14,1136.02c-21.62,0-39.2,17.59-39.2,39.2v179.18h9.07v-179.18c0-16.64,13.49-30.13,30.13-30.13s30.13,13.49,30.13,30.13v134.27h0v44.92h9.07v-179.18c0-21.61-17.59-39.2-39.2-39.2Z"/>
            <path class="cls-5" d="M1153.14,1145.09h0c-8.92,0-16.92,3.87-22.44,10.03.41-.02.83-.03,1.24-.03h0c16.64,0,30.13,13.49,30.13,30.13v169.18h21.2v-179.18c0-16.64-13.49-30.13-30.13-30.13Z"/>
          </g>
          <g>
            <path class="cls-9" d="M1250.65,1145.09h23.97c10.02,0,18.15,8.13,18.15,18.15v191.17h-60.26v-191.17c0-10.02,8.13-18.15,18.15-18.15Z"/>
            <path class="cls-10" d="M1262.63,1136.02c-21.62,0-39.2,17.59-39.2,39.2v179.18h9.07v-179.18c0-16.64,13.49-30.13,30.13-30.13s30.13,13.49,30.13,30.13v134.27h0v44.92h9.07v-179.18c0-21.61-17.58-39.2-39.2-39.2Z"/>
            <path class="cls-5" d="M1262.63,1145.09h0c-8.92,0-16.92,3.87-22.44,10.03.41-.02.83-.03,1.24-.03h0c16.64,0,30.13,13.49,30.13,30.13v169.18h21.2v-179.18c0-16.64-13.49-30.13-30.13-30.13Z"/>
          </g>
          <g>
            <path class="cls-9" d="M1360.14,1145.09h23.97c10.02,0,18.15,8.13,18.15,18.15v191.17h-60.26v-191.17c0-10.02,8.13-18.15,18.15-18.15Z"/>
            <path class="cls-10" d="M1372.12,1136.02c-21.61,0-39.2,17.59-39.2,39.2v179.18h9.07v-179.18c0-16.64,13.49-30.13,30.13-30.13s30.13,13.49,30.13,30.13v134.27h0v44.92h9.07v-179.18c0-21.61-17.58-39.2-39.2-39.2Z"/>
            <path class="cls-5" d="M1372.12,1145.09h0c-8.91,0-16.92,3.87-22.44,10.03.41-.02.83-.03,1.24-.03h0c16.64,0,30.13,13.49,30.13,30.13v169.18h21.2v-179.18c0-16.64-13.49-30.13-30.13-30.13Z"/>
          </g>
          <rect class="cls-2" x="982.09" y="1071.17" width="467.37" height="8.38"/>
          <rect class="cls-2" x="982.09" y="1062.78" width="470.22" height="8.38"/>
          <rect class="cls-5" x="982.09" y="1071.17" width="467.37" height="3.08"/>
          <rect class="cls-5" x="982.09" y="1079.55" width="464.29" height="3.09"/>
        </g>
        <rect class="cls-10" x="524.36" y="1014.54" width="462.95" height="13.45"/>
        <rect class="cls-5" x="529.58" y="1027.98" width="452.51" height="4.43"/>
        <rect class="cls-7" x="527.09" y="994.4" width="457.49" height="8.38"/>
        <rect class="cls-7" x="524.36" y="986.02" width="462.95" height="8.38"/>
        <rect class="cls-5" x="527.09" y="994.4" width="457.49" height="3.09"/>
        <rect class="cls-5" x="529.58" y="1002.78" width="452.51" height="3.09"/>
        <rect class="cls-5" x="572" y="902.76" width="366.03" height="7.22"/>
      </g>
    </g>
  </g>
</svg>