<svg id="Layer_1" enable-background="new 0 0 68 68" height="512" viewBox="0 0 68 68" width="512" xmlns="http://www.w3.org/2000/svg"><g><g><g><g><g><path d="m20.7439289 8.010931v2.2074575c0 .5996389-.4851952 1.0901556-1.0848331 1.0901556h-.0053234c-.599638 0-1.0901546-.4905167-1.0901546-1.0901556v-2.2074575c0-.6052279.4905167-1.0901556 1.0901546-1.0901556h.0053234c.5996379 0 1.0848331.4849277 1.0848331 1.0901556z" fill="#ffd80c"/></g><g><path d="m20.7439289 38.4517975v2.2074585c0 .5996399-.4851952 1.0901566-1.0848331 1.0901566h-.0053234c-.599638 0-1.0901546-.4905167-1.0901546-1.0901566v-2.2074585c0-.6052246.4905167-1.0901527 1.0901546-1.0901527h.0053234c.5996379-.0000001 1.0848331.4849281 1.0848331 1.0901527z" fill="#ffd80c"/></g><g><path d="m3.329654 23.2448959h2.2074583c.5996385 0 1.0901551.4851933 1.0901551 1.0848331v.0053215c0 .5996399-.4905167 1.0901566-1.0901551 1.0901566h-2.2074583c-.6052279 0-1.0901554-.4905167-1.0901554-1.0901546v-.0053234c0-.5996399.4849274-1.0848332 1.0901554-1.0848332z" fill="#ffd80c"/></g><g><path d="m33.7705193 23.2448921h2.2074585c.5996399 0 1.0901566.4851933 1.0901566 1.0848331v.0053215c0 .5996399-.4905167 1.0901566-1.0901566 1.0901566h-2.2074585c-.6052246 0-1.0901527-.4905167-1.0901527-1.0901546v-.0053234c-.0000001-.599638.484928-1.0848332 1.0901527-1.0848332z" fill="#ffd80c"/></g><g><path d="m8.881731 12.0212994 1.5609093 1.5609083c.4240084.4240084.4277725 1.1139402.0037642 1.5379486l-.0037642.0037642c-.4240084.4240084-1.1177044.4240084-1.5417128 0l-1.5609088-1.5609093c-.4279604-.4279604-.4240084-1.1177034 0-1.5417118l.0037642-.0037642c.4240084-.4240084 1.1099877-.4241972 1.5379481.0037642z" fill="#ffd80c"/></g><g><path d="m30.4066772 33.5462418 1.5609093 1.5609093c.4240074.4240074.4277725 1.1139374.0037632 1.5379486l-.0037632.0037613c-.4240093.4240112-1.1177044.4240112-1.5417137 0l-1.5609074-1.5609093c-.4279613-.4279594-.4240093-1.1177025-.0000019-1.5417099l.0037651-.0037651c.4240075-.4240075 1.1099873-.4241982 1.5379486.0037651z" fill="#ffd80c"/></g><g><path d="m7.3400216 35.10709 1.5609088-1.5609093c.4240084-.4240074 1.1139393-.4277725 1.5379477-.0037651l.0037642.0037651c.4240084.4240074.4240093 1.1177025 0 1.5417099l-1.5609083 1.5609093c-.4279604.4279633-1.1177034.4240112-1.5417118 0l-.0037642-.0037613c-.4240089-.4240112-.4241968-1.1099892.0037636-1.5379486z" fill="#ffd80c"/></g><g><path d="m28.8649616 13.5821438 1.5609074-1.5609083c.4240093-.4240084 1.1139412-.4277725 1.5379486-.0037642l.0037651.0037642c.4240074.4240084.4240074 1.1177034 0 1.5417128l-1.5609093 1.5609083c-.4279594.4279604-1.1177044.4240084-1.5417118 0l-.0037651-.0037642c-.4240074-.4240084-.4241962-1.1099873.0037651-1.5379486z" fill="#ffd80c"/></g></g><g><circle cx="19.654" cy="24.335" fill="#ffd80c" r="11.431"/></g><g><path d="m31.0872135 24.3361607c0 6.3117752-5.1183548 11.4301319-11.435854 11.4301319-2.948822 0-5.6360178-1.1173058-7.6636906-2.9542809l14.9732685-17.2625675c2.5183221 2.0930138 4.1262761 5.2490349 4.1262761 8.7867165z" fill="#ffbe00"/></g></g><g opacity=".28"><ellipse cx="13.13" cy="18.085" fill="#fff" rx="2.532" ry="1.011" transform="matrix(.676 -.737 .737 .676 -9.074 15.548)"/></g></g><g><g><g><g><path d="m65.9958878 49.5362206c0 3.1873856-1.2894287 6.074276-3.3776131 8.1588364-2.0881844 2.0919914-4.9713097 3.3812828-8.1587448 3.3812828h-40.9231234c-6.3710623-.0000001-11.5364065-5.1653443-11.5364065-11.5401192 0-3.1836739 1.2932398-6.0705605 3.3776155-8.1588364 1.6013551-1.5974083 3.6743093-2.7308807 5.9907002-3.1684456-.0113754-.1938972-.0189905-.3916931-.0189905-.5894852 0-5.1464005 4.1725588-9.3188686 9.3188667-9.3188686 1.0193443 0 2.0007076.1636219 2.921154.4717388 2.4381313-5.2756653 7.7783813-8.9347916 13.970686-8.9347916 8.4973183 0 15.3856201 6.8883038 15.3856201 15.3857155 0 .9470024-.0874786 1.8750648-.2510071 2.7765656h1.7648849c6.3710633 0 11.536358 5.1653442 11.536358 11.5364075z" fill="#e5e8ef"/></g><g><path d="m66 49.5404167c0 3.1794815-1.2899551 6.0694313-3.3799095 8.1591415-2.0897102 2.0901985-4.9694061 3.3796654-8.1593895 3.3796654h-3.9997406c3.1899796 0 6.0696754-1.2894669 8.1593857-3.3796654 2.0899544-2.0897102 3.3799095-4.97966 3.3799095-8.1591415 0-6.3799629-5.16959-11.539299-11.5392952-11.539299h-1.7699089c.1701584-.9003334.2499847-1.8299599.2499847-2.7800941 0-7.8295765-5.8394661-14.2788696-13.3990402-15.2490215.6598701-.089838 1.3297462-.1298752 2.0198898-.1298752 8.4994545 0 15.3788948 6.8794403 15.3788948 15.3788967 0 .9501343-.0798302 1.8797607-.2499847 2.7800941h1.7699051c6.369709 0 11.539299 5.1593361 11.539299 11.539299z" fill="#cdd4df"/></g></g><g opacity=".28"><path d="m21.6498756 37.252285c-1.6699219 1.6699219-3.8200684 2.2294922-4.8000488 1.2597656-.9699707-.9799805-.4099121-3.1298828 1.2600098-4.7998047s3.8200684-2.2304707 4.8000488-1.2602539c.9699707.9799805.4099121 3.1201172-1.2600098 4.800293z" fill="#fff"/></g></g></g></g></svg>