<svg id="Capa_1" enable-background="new 0 0 512 512" height="512" viewBox="0 0 512 512" width="512" xmlns="http://www.w3.org/2000/svg"><g><g><g><circle cx="256" cy="256" fill="#80d261" r="256"/></g><path d="m78.693 388.576c-28.585-38.062-44.053-84.128-44.053-132.576s15.469-94.514 44.053-132.576c41.485-68.383 114.088-115.792 198.168-122.574-6.881-.555-13.836-.85-20.861-.85-141.385 0-256 114.615-256 256s114.615 256 256 256c7.025 0 13.98-.295 20.861-.85-84.08-6.782-156.683-54.191-198.168-122.574z" fill="#4fc123"/><circle cx="256" cy="256" fill="#fff" r="207.36"/><path d="m223.21 52.255c-98.258 15.756-173.57 101.115-173.57 203.745s75.312 187.989 173.571 203.745c-86.255-27.554-148.718-108.35-148.718-203.745s62.463-176.191 148.717-203.745z" fill="#f3f0f3"/><g><g><g fill="#433f43"><path d="m357.808 197.392-100.644-40.92c-.746-.303-1.582-.303-2.328 0l-100.644 40.92c-1.165.474-1.926 1.606-1.926 2.863v33.374l103.734-41.097 103.734 41.097v-33.374c0-1.257-.762-2.389-1.926-2.863z"/><path d="m256 217.388-103.734 43.256v91.163c0 1.707 1.384 3.091 3.091 3.091h201.287c1.707 0 3.091-1.384 3.091-3.091v-91.163z"/></g><g fill="#685e68"><path d="m152.266 351.807c0 1.707 1.384 3.091 3.091 3.091h100.643v-136.43l-103.734 42.176z"/><path d="m256 156.245c-.395 0-.791.076-1.164.228l-100.644 40.92c-1.165.474-1.926 1.606-1.926 2.863v33.374l103.734-42.177z"/></g><g fill="#554e56"><path d="m180.395 186.739-26.203 10.654c-1.165.474-1.926 1.606-1.926 2.863v33.374l28.129-11.437z"/><path d="m180.395 351.807v-102.6l-28.129 11.437v91.163c0 1.707 1.384 3.091 3.091 3.091h28.129c-1.708-.001-3.091-1.384-3.091-3.091z"/></g><path d="m281.621 228.071v47.187c0 1.18.692 2.25 1.767 2.735l17.828 8.035c1.985.895 4.233-.557 4.233-2.735v-45.286z" fill="#fed402"/><g><path d="m256 191.453-103.734 42.176v27.014l103.734-42.176 103.734 42.176v-27.014z" fill="#fac600"/></g><path d="m152.266 233.629v27.014l103.734-42.176v-27.014z" fill="#fed402"/><path d="m180.395 222.193-28.129 11.436v27.014l28.129-11.436z" fill="#fac600"/></g></g><g><path d="m253.382 75.506-41.63 61.519c-1.891 2.795 1.326 6.211 4.229 4.49l40.324-23.905c1.027-.609 2.309-.587 3.315.056l35.626 22.788c2.892 1.85 6.245-1.59 4.321-4.434l-40.95-60.514c-1.253-1.852-3.981-1.852-5.235 0z" fill="#fd4755"/></g><g><path d="m268.933 90.749-10.315-15.243c-1.253-1.852-3.982-1.852-5.235 0l-41.63 61.519c-1.891 2.795 1.326 6.211 4.229 4.49l31.057-18.412z" fill="#fb2b3a"/></g><g><path d="m263.5 463.21v-28.648c0-4.143-3.357-7.5-7.5-7.5-4.142 0-7.5 3.357-7.5 7.5v28.648c2.491.089 4.988.15 7.5.15s5.009-.061 7.5-.15z" fill="#b5adb6"/></g><g><path d="m463.21 248.5h-7.87c-4.143 0-7.5 3.357-7.5 7.5s3.357 7.5 7.5 7.5h7.87c.089-2.491.15-4.988.15-7.5s-.061-5.009-.15-7.5z" fill="#b5adb6"/></g><g><path d="m64.16 256c0-4.143-3.358-7.5-7.5-7.5h-7.87c-.089 2.491-.15 4.988-.15 7.5s.061 5.009.15 7.5h7.87c4.142 0 7.5-3.357 7.5-7.5z" fill="#b5adb6"/></g><g><path d="m135.041 376.959c-2.929-2.928-7.678-2.928-10.606 0l-20.189 20.189c3.408 3.661 6.946 7.199 10.607 10.607l20.189-20.189c2.928-2.929 2.928-7.677-.001-10.607z" fill="#b5adb6"/></g><g><path d="m376.959 135.041c1.465 1.464 3.385 2.196 5.304 2.196s3.839-.732 5.304-2.196l20.189-20.189c-3.408-3.662-6.946-7.199-10.607-10.607l-20.189 20.189c-2.93 2.929-2.93 7.677-.001 10.607z" fill="#b5adb6"/></g><g><path d="m387.566 376.959c-2.93-2.928-7.678-2.928-10.607 0-2.929 2.93-2.929 7.678 0 10.607l20.189 20.189c3.662-3.408 7.199-6.946 10.607-10.607z" fill="#b5adb6"/></g><g><path d="m124.434 135.041c1.464 1.464 3.384 2.196 5.303 2.196s3.839-.732 5.303-2.196c2.929-2.93 2.929-7.678 0-10.607l-20.189-20.189c-3.661 3.408-7.199 6.946-10.607 10.607z" fill="#b5adb6"/></g><g><path d="m300.247 400.514h-88.494c-4.142 0-7.5-3.357-7.5-7.5s3.358-7.5 7.5-7.5h88.494c4.143 0 7.5 3.357 7.5 7.5s-3.357 7.5-7.5 7.5z" fill="#fd4755"/></g></g><g><g><path d="m87.301 257.483 23.817 22.966c1.308 1.262 3.49.334 3.49-1.483v-45.932c0-1.818-2.182-2.745-3.49-1.483l-23.817 22.966c-.841.81-.841 2.156 0 2.966z" fill="#fd4755"/></g><g><path d="m424.699 257.483-23.817 22.966c-1.308 1.262-3.49.335-3.49-1.483v-45.932c0-1.818 2.182-2.745 3.49-1.483l23.817 22.966c.841.81.841 2.156 0 2.966z" fill="#fd4755"/></g></g><g><g><path d="m256 477.36c-59.127 0-114.716-23.025-156.525-64.835s-64.835-97.398-64.835-156.525 23.025-114.716 64.835-156.525 97.398-64.835 156.525-64.835 114.716 23.025 156.525 64.835 64.835 97.398 64.835 156.525-23.025 114.716-64.835 156.525-97.398 64.835-156.525 64.835zm0-427.72c-113.788 0-206.36 92.573-206.36 206.36s92.572 206.36 206.36 206.36c113.787 0 206.36-92.573 206.36-206.36s-92.573-206.36-206.36-206.36z" fill="#47a920"/></g></g></g></svg>