<svg id="Layer_1" enable-background="new 0 0 512 512" height="512" viewBox="0 0 512 512" width="512" xmlns="http://www.w3.org/2000/svg"><g id="XMLID_1_"><g id="XMLID_3682_"><path id="XMLID_2746_" d="m405 507-149-65.6-149 65.6v-131h298z" fill="#b24e10"/><path id="XMLID_1733_" d="m507 291-251 110-251-110v40l205.5 90.4-103.5 45.6v40l149-65.6 149 65.6v-40l-103.5-45.6 205.5-90.4z" fill="#e36415"/><path id="XMLID_1726_" d="m256 115-223-97.7c-13.2-5.8-28 3.9-28 18.3v255.4l216.8 95h68.5l216.7-95v-255.4c0-14.4-14.8-24.1-28-18.3z" fill="#399349"/><path id="XMLID_1731_" d="m207.7 45.2c-35.4-19.2-125.1-40.2-125.1-40.2l-47.6 45.6v220.9l198.2 87.5h22.8v-244s-13-50.5-48.3-69.8z" fill="#ffcb5d"/><path id="XMLID_1966_" d="m83 5.1v287.6l-48-21.2v-220.9l47.6-45.6s.1 0 .4.1z" fill="#ffe3a9"/><path id="XMLID_1727_" d="m304.3 45.2c35.4-19.2 125.1-40.2 125.1-40.2l47.6 45.6v220.9l-198.2 87.5h-22.8v-244s13-50.5 48.3-69.8z" fill="#ffcb5d"/><path id="XMLID_1996_" d="m251 115h10v244h-10z" fill="#ffb30f"/><path id="XMLID_1995_" d="m429 5.1v287.6l48-21.2v-220.9l-47.6-45.6s-.4 0-.4.1z" fill="#ffe3a9"/><g id="XMLID_1982_"><path id="XMLID_1985_" d="m448 66h10v204h-10z" fill="#ffcb5d"/></g><path id="XMLID_1728_" d="m477 271.5-47.6-35.6s-89.7 21.1-125.1 40.4c-35.3 19.4-48.3 82.7-48.3 82.7h22.8z" fill="#ffb30f"/><g id="XMLID_1719_"><g id="XMLID_1723_"><path id="XMLID_1729_" d="m110.6 66h99.8v10h-99.8z" fill="#399349" transform="matrix(.946 .325 -.325 .946 31.808 -48.331)"/></g><g id="XMLID_1722_"><path id="XMLID_1712_" d="m110.6 114.7h99.8v10h-99.8z" fill="#399349" transform="matrix(.946 .325 -.325 .946 47.633 -45.686)"/></g><g id="XMLID_1721_"><path id="XMLID_1711_" d="m110.6 163.3h99.8v10h-99.8z" fill="#399349" transform="matrix(.946 .325 -.325 .946 63.459 -43.041)"/></g><g id="XMLID_1720_"><path id="XMLID_1710_" d="m110.6 212h99.8v10h-99.8z" fill="#399349" transform="matrix(.946 .325 -.325 .946 79.283 -40.396)"/></g></g><g id="XMLID_1713_"><path id="XMLID_1983_" d="m54 66h10v204h-10z" fill="#ffcb5d"/></g><path id="XMLID_1732_" d="m35 271.5 47.6-35.6s89.7 21.1 125.1 40.4c35.3 19.4 48.3 82.7 48.3 82.7h-22.8z" fill="#ffb30f"/><path id="XMLID_1984_" d="m53.9 257.4 148.2 59.4 3.8-9.3-142.6-57.2z" fill="#ffcb5d"/><g id="XMLID_1986_"><g id="XMLID_1993_"><path id="XMLID_1994_" d="m301.6 66h99.8v10h-99.8z" fill="#399349" transform="matrix(-.946 .325 -.325 -.946 706.99 23.837)"/></g><g id="XMLID_1991_"><path id="XMLID_1992_" d="m301.6 114.7h99.8v10h-99.8z" fill="#399349" transform="matrix(-.946 .325 -.325 -.946 722.815 118.527)"/></g><g id="XMLID_1989_"><path id="XMLID_1990_" d="m301.6 163.3h99.8v10h-99.8z" fill="#399349" transform="matrix(-.946 .325 -.325 -.946 738.64 213.216)"/></g><g id="XMLID_1987_"><path id="XMLID_1988_" d="m301.6 212h99.8v10h-99.8z" fill="#399349" transform="matrix(-.946 .325 -.325 -.946 754.465 307.903)"/></g></g><path id="XMLID_1588_" d="m458.1 257.4-148.2 59.4-3.8-9.3 142.6-57.2z" fill="#ffcb5d"/><path id="XMLID_1730_" d="m256 327.5c-12.6 0-22.8 10.2-22.8 22.8v8.7h45.5v-8.7c.1-12.6-10.1-22.8-22.7-22.8z" fill="#2b6e38"/><path id="XMLID_1709_" d="m338 300.1-30 12.1v66l15-26.6 15 13.5z" fill="#e86b4d"/></g><g id="XMLID_3373_"><g id="XMLID_394_"><path id="XMLID_3339_" d="m78 5h10v231h-10z" fill="#4d2419"/></g><g id="XMLID_396_"><path id="XMLID_3237_" d="m405 512c-.7 0-1.4-.1-2-.4l-147-64.7-147 64.7c-1.5.7-3.3.5-4.7-.4s-2.3-2.5-2.3-4.2v-40c0-2 1.2-3.8 3-4.6l93.1-41-195.1-85.8c-1.8-.8-3-2.6-3-4.6v-40c0-1.7.9-3.3 2.3-4.2s3.2-1.1 4.7-.4l249 109.1 249-109.1c1.5-.7 3.3-.5 4.7.4s2.3 2.5 2.3 4.2v40c0 2-1.2 3.8-3 4.6l-195.1 85.9 93.1 41c1.8.8 3 2.6 3 4.6v40c0 1.7-.9 3.3-2.3 4.2-.8.4-1.7.7-2.7.7zm-149-75.6c.7 0 1.4.1 2 .4l142 62.5v-29.1l-100.6-44.2c-1.8-.8-3-2.6-3-4.6s1.2-3.8 3-4.6l202.6-89.1v-29.1l-244 107c-1.3.6-2.7.6-4 0l-244-106.9v29.1l202.6 89.1c1.8.8 3 2.6 3 4.6s-1.2 3.8-3 4.6l-100.6 44.2v29.1l142-62.5c.6-.3 1.3-.5 2-.5z" fill="#4d2419"/></g><g id="XMLID_403_"><path id="XMLID_3236_" d="m242.2 331.2c-6.9-17.6-18.9-40.6-37-50.5-31.3-17.1-107.4-36-121.6-39.4l-45.6 34.2-6-8 47.6-35.6c1.2-.9 2.7-1.2 4.1-.9 3.7.9 90.8 21.4 126.3 40.9 20.8 11.4 34 36.5 41.5 55.6z" fill="#4d2419"/></g><g id="XMLID_411_"><path id="XMLID_3235_" d="m231.2 363.6-198.2-87.5c-1.8-.8-3-2.6-3-4.6v-220.9c0-1.5.7-3 1.8-3.9l47.3-45.3c1.2-1.2 3-1.6 4.6-1.3 3.7.9 90.8 21.3 126.3 40.7 36.8 20.1 50.2 70.8 50.8 72.9.1.4.2.8.2 1.2v213h-10v-212.2c-1.6-5.5-14.7-49.2-45.7-66.1s-106.2-35.5-121.2-39.1l-44.1 42.3v215.5l195.2 86.2z" fill="#4d2419"/></g><g id="XMLID_399_"><path id="XMLID_3232_" d="m278.8 364h-45.5c-2.8 0-5-2.2-5-5v-8.7c0-15.3 12.5-27.8 27.8-27.8s27.8 12.5 27.8 27.8v8.7c-.1 2.8-2.4 5-5.1 5zm-40.6-10h35.5v-3.7c0-9.8-8-17.8-17.8-17.8s-17.8 8-17.8 17.8v3.7z" fill="#4d2419"/></g><g id="XMLID_415_"><path id="XMLID_3231_" d="m424 25h10v211h-10z" fill="#4d2419"/></g><g id="XMLID_1458_"><path id="XMLID_3230_" d="m288.4 336.6h10v31.9h-10z" fill="#4d2419" transform="matrix(.404 .915 -.915 .404 497.479 -58.195)"/></g><g id="XMLID_397_"><path id="XMLID_3229_" d="m340 337.4-4-9.1 136-60v-215.5l-44.1-42.3c-15 3.6-90.2 22.2-121.2 39.1-33 18-45.8 66.2-45.9 66.6l-9.7-2.5c.6-2.1 14-52.9 50.8-72.9 35.6-19.3 122.7-39.8 126.4-40.7 1.6-.4 3.4.1 4.6 1.3l47.3 45.3c1.2.9 1.9 2.4 1.9 3.9v220.9c0 2-1.2 3.8-3 4.6z" fill="#4d2419"/></g><g id="XMLID_1457_"><path id="XMLID_3228_" d="m290.2 391h-68.5c-.7 0-1.4-.1-2-.4l-216.7-95c-1.8-.8-3-2.6-3-4.6v-255.4c0-8.5 4.2-16.3 11.3-20.9s16-5.4 23.7-2l26 11.4-4 9.2-26-11.4c-4.7-2.1-9.9-1.6-14.2 1.2s-6.8 7.4-6.8 12.6v252.1l212.8 93.2h66.4l212.8-93.3v-252.1c0-5.2-2.5-9.7-6.8-12.6-4.3-2.8-9.5-3.3-14.2-1.2l-26 11.4-4-9.2 26-11.4c7.8-3.4 16.6-2.7 23.7 2 7.1 4.6 11.3 12.5 11.3 20.9v255.5c0 2-1.2 3.8-3 4.6l-216.8 95c-.6.3-1.3.4-2 .4z" fill="#4d2419"/></g><g id="XMLID_412_"><path id="XMLID_3227_" d="m269.8 331.2-9.3-3.6c7.5-19.1 20.7-44.3 41.5-55.6 35.5-19.4 122.6-40 126.3-40.9 1.4-.3 3 0 4.1.9l47.6 35.6-6 8-45.7-34.2c-14.1 3.4-90.3 22.3-121.6 39.4-18.1 9.8-30.1 32.9-36.9 50.4z" fill="#4d2419"/></g><g id="XMLID_84_"><path id="XMLID_3226_" d="m102 396h10v71h-10z" fill="#4d2419"/></g><g id="XMLID_395_"><path id="XMLID_3225_" d="m400 376h10v91h-10z" fill="#4d2419"/></g><g id="XMLID_398_"><g id="XMLID_420_"><path id="XMLID_3224_" d="m110.6 66h99.8v10h-99.8z" fill="#4d2419" transform="matrix(.946 .325 -.325 .946 31.808 -48.331)"/></g><g id="XMLID_419_"><path id="XMLID_3223_" d="m110.6 114.7h99.8v10h-99.8z" fill="#4d2419" transform="matrix(.946 .325 -.325 .946 47.633 -45.686)"/></g><g id="XMLID_418_"><path id="XMLID_3222_" d="m110.6 163.3h99.8v10h-99.8z" fill="#4d2419" transform="matrix(.946 .325 -.325 .946 63.459 -43.041)"/></g><g id="XMLID_417_"><path id="XMLID_3221_" d="m110.6 212h99.8v10h-99.8z" fill="#4d2419" transform="matrix(.946 .325 -.325 .946 79.283 -40.396)"/></g></g><g id="XMLID_393_"><g id="XMLID_407_"><path id="XMLID_3220_" d="m346.5 21.1h10v99.8h-10z" fill="#4d2419" transform="matrix(.325 .946 -.946 .325 304.341 -284.489)"/></g><g id="XMLID_406_"><path id="XMLID_3219_" d="m346.5 69.8h10v99.8h-10z" fill="#4d2419" transform="matrix(.325 .946 -.946 .325 350.363 -251.648)"/></g><g id="XMLID_405_"><path id="XMLID_3218_" d="m346.5 118.5h10v99.8h-10z" fill="#4d2419" transform="matrix(.325 .946 -.946 .325 396.385 -218.806)"/></g><g id="XMLID_404_"><path id="XMLID_3217_" d="m346.5 167.1h10v99.8h-10z" fill="#4d2419" transform="matrix(.325 .946 -.946 .325 442.406 -185.965)"/></g></g><g id="XMLID_409_"><path id="XMLID_3216_" d="m54 66h10v188h-10z" fill="#4d2419"/></g><g id="XMLID_408_"><path id="XMLID_3215_" d="m53.4 278.1h156.2v10h-156.2z" fill="#4d2419" transform="matrix(.928 .372 -.372 .928 114.885 -28.609)"/></g><g id="XMLID_416_"><path id="XMLID_3214_" d="m448 66h10v188h-10z" fill="#4d2419"/></g><g id="XMLID_410_"><path id="XMLID_3213_" d="m375.5 205h10v156.2h-10z" fill="#4d2419" transform="matrix(.372 .928 -.928 .372 501.515 -175.467)"/></g><g id="XMLID_434_"><path id="XMLID_3210_" d="m308 383.2c-.4 0-.8-.1-1.3-.2-2.2-.6-3.7-2.6-3.7-4.8v-66c0-2 1.2-3.9 3.1-4.6l30-12c1.5-.6 3.3-.4 4.7.5s2.2 2.5 2.2 4.1v64.9c0 2-1.2 3.8-3 4.6s-3.9.5-5.4-.8l-10.4-9.3-11.9 21.2c-.8 1.5-2.5 2.4-4.3 2.4zm5-67.6v43.6l5.6-10c.7-1.3 2-2.2 3.5-2.5 1.5-.2 3 .2 4.1 1.2l6.7 6v-46.3z" fill="#4d2419"/></g></g></g></svg>