<svg id="Capa_1" enable-background="new 0 0 512 512" height="512" viewBox="0 0 512 512" width="512" xmlns="http://www.w3.org/2000/svg"><g><g><path d="m398.512 259.605c0 78.989-64.034 143.023-143.023 143.023s-143.023-64.034-143.023-143.023c0-74.897 57.57-136.347 130.872-142.514 4.006-.337 8.058-.509 12.151-.509 78.989 0 143.023 64.034 143.023 143.023z" fill="#ffc433"/><path d="m255.489 116.582c-3.667 0-7.303.142-10.898.406.178.013.355.027.533.041 73.637 5.832 131.586 67.438 131.586 142.579 0 75.322-58.228 137.045-132.119 142.621 3.596.264 7.232.406 10.898.406 78.989 0 143.027-64.038 143.027-143.027 0-78.987-64.038-143.026-143.027-143.026z" fill="#ffb322"/><path d="m508.249 358.947c-1.102-24.725-21.704-44.528-46.453-44.708-9.495-.069-18.343 2.686-25.752 7.477-9.827 6.354-17.124 16.286-20.046 27.954-.195.78-1.161 1.039-1.742.485-4.127-3.932-9.714-6.346-15.864-6.346-2.202 0-4.332.31-6.349.887-.722.207-1.43-.383-1.332-1.127.339-2.593.456-5.256.329-7.969-1.074-23.016-19.921-41.647-42.948-42.466-25.387-.903-46.252 19.41-46.252 44.596v.03c.001.942-1.134 1.428-1.783.745-5.534-5.819-13.352-9.447-22.017-9.447-.184 0-.367.002-.55.005-.519.009-.96-.35-1.052-.86-4.182-23.056-24.537-40.478-48.888-40.089-25.617.409-46.843 20.961-48.025 46.555-.152 3.288.022 6.509.491 9.633.076.509-.222.986-.71 1.149-12.734 4.247-21.914 16.263-21.914 30.424 0 17.709 14.356 32.065 30.694 32.065h272.737c2.182 0 4.347-.145 6.482-.43 14.582-1.945 27.742-10.393 35.008-23.406 4.135-7.41 6.342-16.035 5.936-25.157z" fill="#e6f6ff"/><path d="m502.315 384.098c-7.217 12.932-20.251 21.355-34.723 23.37 6.342-4.022 11.721-9.564 15.496-16.325 4.136-7.407 6.342-16.031 5.933-25.15-1.103-24.723-21.699-44.529-46.45-44.71-2.197-.019-4.366.128-6.486.404 7.398-4.773 16.242-7.517 25.713-7.45 24.742.181 45.347 19.987 46.45 44.71.41 9.119-1.796 17.743-5.933 25.151z" fill="#d1edff"/><path d="m323.661 388.165h-299.319c-11.633 0-21.018 9.624-20.627 21.345.374 11.211 9.951 19.934 21.168 19.934h127.888c-11.633 0-21.018 9.624-20.627 21.345.374 11.211 9.951 19.934 21.168 19.934h-65.605c-11.633 0-21.018 9.624-20.627 21.345.374 11.21 9.951 19.932 21.168 19.932h128.479c11.331 0 20.543-9.135 20.638-20.466.096-11.466-9.172-20.813-20.638-20.813h65.063c11.331 0 20.543-9.135 20.638-20.466.096-11.466-9.172-20.813-20.638-20.813h41.87c11.331 0 20.543-9.135 20.638-20.466.097-11.464-9.171-20.811-20.637-20.811z" fill="#a2dbff"/><g fill="#64caff"><path d="m237.369 491.361v.173c-.101 11.335-9.314 20.466-20.638 20.466h-21.614c11.325 0 20.537-9.131 20.638-20.466v-.173c0-11.386-9.232-20.639-20.638-20.639h21.614c11.406 0 20.638 9.253 20.638 20.639z"/><path d="m302.433 450.084v.173c-.102 11.335-9.314 20.466-20.638 20.466h-21.614c11.325 0 20.537-9.131 20.638-20.466v-.173c0-11.386-9.232-20.638-20.638-20.638h21.614c11.406-.001 20.638 9.252 20.638 20.638z"/><path d="m344.299 408.979c-.091 11.325-9.303 20.466-20.638 20.466h-21.613c11.335 0 20.547-9.141 20.638-20.466.102-11.467-9.171-20.811-20.638-20.811h21.613c11.467 0 20.73 9.344 20.638 20.811z"/></g></g><g><g><g><path d="m255.489 73.149c-4.207 0-7.618-3.41-7.618-7.618v-57.913c0-4.208 3.411-7.618 7.618-7.618s7.618 3.41 7.618 7.618v57.914c-.001 4.207-3.411 7.617-7.618 7.617z" fill="#ffc433"/></g></g><g><g><path d="m158.459 99.151c-2.632 0-5.193-1.366-6.604-3.81l-11.349-19.658c-2.104-3.643-.855-8.302 2.788-10.406 3.643-2.103 8.302-.855 10.406 2.788l11.349 19.658c2.104 3.643.855 8.302-2.788 10.406-1.199.693-2.509 1.022-3.802 1.022z" fill="#ffc433"/></g></g><g><g><path d="m61.416 267.223h-22.699c-4.207 0-7.618-3.41-7.618-7.618s3.411-7.618 7.618-7.618h22.699c4.207 0 7.618 3.41 7.618 7.618-.001 4.208-3.411 7.618-7.618 7.618z" fill="#ffc433"/></g><g><path d="m472.262 267.223h-22.699c-4.207 0-7.618-3.41-7.618-7.618s3.411-7.618 7.618-7.618h22.699c4.207 0 7.618 3.41 7.618 7.618-.001 4.208-3.411 7.618-7.618 7.618z" fill="#ffc433"/></g></g><g><g><path d="m352.519 99.151c-1.292 0-2.602-.329-3.802-1.022-3.644-2.104-4.892-6.763-2.788-10.406l11.349-19.658c2.103-3.644 6.762-4.892 10.406-2.788s4.892 6.763 2.788 10.406l-11.349 19.658c-1.411 2.444-3.972 3.81-6.604 3.81z" fill="#ffc433"/></g></g><g><g><path d="m87.41 170.188c-1.292 0-2.602-.329-3.802-1.022l-50.155-28.958c-3.644-2.104-4.892-6.763-2.788-10.406 2.103-3.644 6.763-4.892 10.406-2.788l50.155 28.958c3.644 2.104 4.892 6.763 2.788 10.406-1.411 2.444-3.972 3.81-6.604 3.81z" fill="#ffc433"/></g></g><g><g><path d="m423.568 170.188c-2.632 0-5.193-1.366-6.604-3.81-2.104-3.643-.855-8.302 2.788-10.406l50.155-28.958c3.644-2.103 8.302-.855 10.406 2.788s.855 8.302-2.788 10.406l-50.155 28.958c-1.2.692-2.509 1.022-3.802 1.022z" fill="#ffc433"/></g></g></g></g></svg>