<svg id="Layer_1" viewBox="0 0 100 100" xmlns="http://www.w3.org/2000/svg" data-name="Layer 1"><path d="m23.181 88.359c-.582 1.178-2.777 2.231-4.21 2.925-2.029.983-4.569 4.758-4.569 4.758-2.568-3.36-1.035-8.9.37-11.747s4.194-4.3 6.606-3.105 3.208 4.323 1.803 7.169z" fill="#ffde17"/><circle cx="26.989" cy="70.451" fill="#8dc63f" r="4.727" transform="matrix(.28 -.96 .96 .28 -48.2 76.649)"/><circle cx="38.254" cy="73.18" fill="#8dc63f" r="4.727" transform="matrix(.28 -.96 .96 .28 -42.706 89.429)"/><circle cx="14.749" cy="51.621" fill="#00a651" r="4.727" transform="matrix(.28 -.96 .96 .28 -38.937 51.336)"/><circle cx="19.774" cy="61.415" fill="#00a651" r="4.727" transform="matrix(.28 -.96 .96 .28 -44.72 63.213)"/><circle cx="12.013" cy="29.404" fill="#8dc63f" r="4.728" transform="matrix(.28 -.96 .96 .28 -19.578 32.713)"/><circle cx="12.405" cy="40.474" fill="#8dc63f" r="4.728" transform="matrix(.28 -.96 .96 .28 -29.923 41.053)"/><circle cx="26.089" cy="12.703" fill="#00a651" r="4.727" transform="matrix(.28 -.96 .96 .28 6.595 34.196)"/><circle cx="16.313" cy="18.799" fill="#00a651" r="4.727" transform="matrix(.28 -.96 .96 .28 -6.3 29.2)"/><circle cx="48.781" cy="9.468" fill="#8dc63f" r="4.727" transform="matrix(.28 -.96 .96 .28 26.043 53.651)"/><circle cx="37.109" cy="8.686" fill="#8dc63f" r="4.727" transform="matrix(.28 -.96 .96 .28 18.386 41.882)"/><circle cx="70.257" cy="17.159" fill="#00a651" r="4.727" transform="matrix(.28 -.96 .96 .28 34.133 79.813)"/><circle cx="59.71" cy="12.653" fill="#00a651" r="4.727" transform="matrix(.28 -.96 .96 .28 30.861 66.441)"/><g fill="#8dc63f"><circle cx="80.512" cy="21.335" r="4.728" transform="matrix(.28 -.96 .96 .28 37.509 92.666)"/><circle cx="86.352" cy="31.181" r="4.727" transform="matrix(.28 -.96 .96 .28 32.245 105.351)"/><circle cx="71.939" cy="70.537" r="4.727" transform="matrix(.371 -.929 .929 .371 -20.261 111.155)"/></g><circle cx="87.987" cy="42.643" fill="#00a651" r="4.727" transform="matrix(.28 -.96 .96 .28 22.426 115.182)"/><circle cx="86.68" cy="54.047" fill="#00a651" r="4.727" transform="matrix(.28 -.96 .96 .28 10.539 122.142)"/><circle cx="81.644" cy="64.62" fill="#8dc63f" r="4.728" transform="matrix(.28 -.96 .96 .28 -3.234 124.93)"/><circle cx="60.606" cy="73.495" fill="#00a651" r="4.728" transform="matrix(.28 -.96 .96 .28 -26.909 111.123)"/><circle cx="49.598" cy="73.874" fill="#00a651" r="4.727" transform="matrix(.28 -.96 .96 .28 -35.203 100.821)"/><path d="m19.412 75.74h7.27v4.337h-7.27z" fill="#c2b59b" transform="matrix(.449 -.894 .894 .449 -56.915 63.519)"/><path d="m93.726 44.134a5.977 5.977 0 0 0 -4.065-7.41 6.009 6.009 0 0 0 -.749-.162 5.968 5.968 0 0 0 -2.562-11.362 5.861 5.861 0 0 0 -1.485.21 5.967 5.967 0 0 0 -8.631-8.241 5.957 5.957 0 0 0 -10.6-3.764 5.965 5.965 0 0 0 -10.878-4.078 5.981 5.981 0 0 0 -5.978-5.837 6.009 6.009 0 0 0 -5.736 4.305c-.008.024-.011.049-.018.074a5.973 5.973 0 1 0 -11.809 1.791 5.922 5.922 0 0 0 -3.454-2.7 5.975 5.975 0 0 0 -7.4 7.45 5.94 5.94 0 0 0 -4.053-1.594 6.007 6.007 0 0 0 -5.736 4.3 5.994 5.994 0 0 0 2 6.34c-.186-.018-.372-.04-.559-.04a6.007 6.007 0 0 0 -5.738 4.307 5.933 5.933 0 0 0 3.749 7.284 5.942 5.942 0 0 0 1.822 11.4 5.971 5.971 0 0 0 2.904 11.193c.165 0 .325-.027.487-.041a5.918 5.918 0 0 0 -1.2 2.184 5.981 5.981 0 0 0 5.74 7.651 5.9 5.9 0 0 0 2.482-.566 5.869 5.869 0 0 0 -.618 6.278c0 .007-.011.012-.015.019l-3.267 6.5c-.011.022-.01.047-.02.07a7.339 7.339 0 0 0 -4.689 4.051c-1.49 3.019-3.218 9.167-.242 13.06a1.25 1.25 0 0 0 .993.491h.037a1.252 1.252 0 0 0 1-.552c.909-1.351 2.82-3.722 4.118-4.35 2.1-1.014 4.036-2.044 4.745-3.477a7.13 7.13 0 0 0 .183-6.254l3.16-6.283a6 6 0 0 0 4.636-3.181 5.963 5.963 0 0 0 11.558 2.055 5.956 5.956 0 0 0 11.336.532 5.967 5.967 0 0 0 11.393-2.83c.044.091.083.183.132.272a5.992 5.992 0 0 0 5.244 3.1 6.009 6.009 0 0 0 5.736-4.307 5.937 5.937 0 0 0 .063-3.079 5.893 5.893 0 0 0 3.9 1.469 5.973 5.973 0 0 0 3.558-10.766 5.955 5.955 0 0 0 3.732-11.285 6.012 6.012 0 0 0 4.794-4.227zm-6.4-16.291a3.482 3.482 0 0 1 2.365 4.311 3.53 3.53 0 0 1 -4.312 2.364 3.475 3.475 0 0 1 -2.364-4.312 3.471 3.471 0 0 1 4.31-2.364zm-10.15-7.48a3.471 3.471 0 0 1 4.308-2.363 3.478 3.478 0 0 1 2.366 4.311 3.474 3.474 0 0 1 -4.311 2.367 3.476 3.476 0 0 1 -2.365-4.311zm-10.258-4.177a3.473 3.473 0 0 1 4.311-2.365 3.477 3.477 0 0 1 2.366 4.31 3.473 3.473 0 0 1 -4.312 2.369 3.478 3.478 0 0 1 -2.365-4.312zm-10.546-4.506a3.477 3.477 0 0 1 6.677 1.945 3.533 3.533 0 0 1 -4.311 2.366 3.478 3.478 0 0 1 -2.365-4.311zm-10.931-3.185a3.474 3.474 0 0 1 4.313-2.365 3.477 3.477 0 0 1 2.365 4.311 3.531 3.531 0 0 1 -4.311 2.365 3.479 3.479 0 0 1 -2.366-4.311zm-11.671-.782a3.477 3.477 0 0 1 6.677 1.946 3.534 3.534 0 0 1 -4.312 2.365 3.476 3.476 0 0 1 -2.365-4.311zm-11.019 4.017a3.473 3.473 0 0 1 4.31-2.365 3.478 3.478 0 0 1 2.367 4.311 3.531 3.531 0 0 1 -4.313 2.365 3.475 3.475 0 0 1 -2.364-4.311zm-9.776 6.1a3.477 3.477 0 0 1 6.677 1.946 3.534 3.534 0 0 1 -4.312 2.366 3.476 3.476 0 0 1 -2.364-4.312zm-4.01 13.248a3.454 3.454 0 0 1 -.29-2.646 3.481 3.481 0 1 1 2.365 4.312 3.45 3.45 0 0 1 -2.075-1.666zm.1 8.423a3.477 3.477 0 1 1 6.676 1.947 3.531 3.531 0 0 1 -4.311 2.365 3.481 3.481 0 0 1 -2.363-4.313zm4.708 15.459a3.475 3.475 0 0 1 -2.365-4.312 3.477 3.477 0 0 1 6.387-.7 3.456 3.456 0 0 1 .29 2.645 3.533 3.533 0 0 1 -4.31 2.366zm5.027 9.793a3.477 3.477 0 1 1 4.311-2.365 3.531 3.531 0 0 1 -4.311 2.365zm3.26 23.053c-.386.782-2.552 1.83-3.634 2.353a13.34 13.34 0 0 0 -3.84 3.532c-.922-2.95.344-6.894 1.306-8.842a4.547 4.547 0 0 1 3.717-2.828 2.722 2.722 0 0 1 1.215.289c1.776.88 2.322 3.29 1.236 5.496zm.736-7.354-1.641-.825 2.145-4.262 1.641.825zm7.531-9.028a3.531 3.531 0 0 1 -4.311 2.365 3.477 3.477 0 0 1 -2.365-4.312 3.477 3.477 0 1 1 6.677 1.946zm11.266 2.728a3.482 3.482 0 1 1 -2.365-4.31 3.477 3.477 0 0 1 2.365 4.31zm11.344.513a3.481 3.481 0 1 1 -2.365-4.311 3.479 3.479 0 0 1 2.365 4.311zm11.008-.379a3.481 3.481 0 1 1 -2.365-4.311 3.494 3.494 0 0 1 2.364 4.311zm2.256-5.6a5.978 5.978 0 0 0 -.225 2.027 5.952 5.952 0 0 0 -10.944.505c-.061-.134-.122-.267-.193-.4a5.96 5.96 0 0 0 -10.821.791 6 6 0 0 0 -.522-1.3 5.99 5.99 0 0 0 -5.243-3.1 6 6 0 0 0 -5.288 3.228 5.978 5.978 0 0 0 -5.976-5.957 5.912 5.912 0 0 0 -2.484.566 5.956 5.956 0 0 0 -3.057-9.361 5.967 5.967 0 0 0 -1.675-.241c-.165 0-.324.027-.486.041a5.955 5.955 0 0 0 -2.864-9.594 6.031 6.031 0 0 0 -1.114-.2 5.957 5.957 0 0 0 -.89-10.83 5.949 5.949 0 0 0 1.326-10.115c.19.018.38.04.571.04a6.009 6.009 0 0 0 5.737-4.307 5.937 5.937 0 0 0 -.029-3.419 5.928 5.928 0 0 0 2.394 1.39 5.969 5.969 0 0 0 7.567-6.711 5.941 5.941 0 0 0 5.127 2.934 6.008 6.008 0 0 0 5.737-4.306c.006-.022.01-.044.016-.066a5.966 5.966 0 0 0 10.871 2.5 5.956 5.956 0 0 0 10.6 3.612 5.967 5.967 0 0 0 10.2 4.917 5.979 5.979 0 0 0 5.977 5.991 5.848 5.848 0 0 0 1.487-.221 5.965 5.965 0 0 0 2.681 9.815 6.048 6.048 0 0 0 .75.162 5.949 5.949 0 0 0 -2.682 8.256 5.913 5.913 0 0 0 2.982 2.629 5.97 5.97 0 0 0 -2.61 10.691 5.964 5.964 0 0 0 -7.284 7.172 5.945 5.945 0 0 0 -3.9-1.453 6.008 6.008 0 0 0 -5.737 4.311zm9.078 2.645a3.533 3.533 0 0 1 -4.312 2.366 3.478 3.478 0 0 1 -2.367-4.315 3.478 3.478 0 0 1 6.678 1.946zm9.7-5.916a3.533 3.533 0 0 1 -4.311 2.366 3.477 3.477 0 0 1 -2.365-4.311 3.477 3.477 0 1 1 6.677 1.945zm4.746-13.218a3.456 3.456 0 0 1 .29 2.645 3.533 3.533 0 0 1 -4.308 2.358 3.477 3.477 0 1 1 4.021-5.01zm1.6-8.758a3.473 3.473 0 0 1 -4.311 2.361 3.475 3.475 0 0 1 -2.364-4.311 3.471 3.471 0 0 1 4.311-2.364 3.477 3.477 0 0 1 2.364 4.311z" fill="#231f20"/></svg>