<svg clip-rule="evenodd" fill-rule="evenodd" height="512" stroke-linejoin="round" stroke-miterlimit="2" viewBox="0 0 356 356" width="512" xmlns="http://www.w3.org/2000/svg" xmlns:xlink="http://www.w3.org/1999/xlink"><linearGradient id="_Linear1" gradientTransform="matrix(-140.434 257.227 -257.227 -140.434 283.001 71.757)" gradientUnits="userSpaceOnUse" x1="0" x2="1" y1="0" y2="0"><stop offset="0" stop-color="#d5edec"/><stop offset="1" stop-color="#b1b6f4"/></linearGradient><linearGradient id="_Linear2" gradientTransform="matrix(-83.109 111.99 -111.99 -83.109 118.987 28.611)" gradientUnits="userSpaceOnUse" x1="0" x2="1" y1="0" y2="0"><stop offset="0" stop-color="#e9f8f0"/><stop offset="1" stop-color="#cce7e7"/></linearGradient><linearGradient id="lg1"><stop offset="0" stop-color="#b0f596"/><stop offset="1" stop-color="#1eac61"/></linearGradient><linearGradient id="_Linear3" gradientTransform="matrix(-56.222 57.655 -57.655 -56.222 105.543 51.846)" gradientUnits="userSpaceOnUse" x1="0" x2="1" xlink:href="#lg1" y1="0" y2="0"/><linearGradient id="_Linear4" gradientTransform="matrix(-72.222 2.222 -2.222 -72.222 122.545 117.508)" gradientUnits="userSpaceOnUse" x1="0" x2="1" y1="0" y2="0"><stop offset="0" stop-color="#448fae"/><stop offset="1" stop-color="#22647f"/></linearGradient><linearGradient id="_Linear5" gradientUnits="userSpaceOnUse" x1="77.21" x2="325.175" y1="197.824" y2="197.824"><stop offset="0" stop-color="#477294"/><stop offset="1" stop-color="#1c3d57"/></linearGradient><linearGradient id="_Linear6" gradientTransform="matrix(-14.567 25.003 -25.003 -14.567 208.436 182.453)" gradientUnits="userSpaceOnUse" x1="0" x2="1" xlink:href="#lg1" y1="0" y2="0"/><g id="Exp-04.-S"><g><path d="m155.139 64.835c14.432-5.003 29.927-7.722 46.053-7.722 77.661 0 140.711 63.051 140.711 140.711 0 77.661-63.05 140.711-140.711 140.711s-140.711-63.05-140.711-140.711c0-13.012 1.77-25.614 5.082-37.578z" fill="url(#_Linear1)"/><path d="m85.266 17.02c-39.525 0-71.613 32.089-71.613 71.613 0 39.525 32.088 71.613 71.613 71.613 10.995 0 21.415-2.483 30.729-6.919 6.307-3.004 25.849 8.274 50.131.725 4.666-1.451-22.519-23.217-18.741-29.785 6.039-10.496 9.494-22.665 9.494-35.634 0-39.524-32.089-71.613-71.613-71.613z" fill="url(#_Linear2)"/><path d="m59.277 106.89s-10.048-5.421-10.15-20.284c-.181-26.299 26.999-33.677 35.369-46.172.197-.338.558-.545.948-.545.391.001.751.208.947.546 8.373 12.494 35.553 19.872 35.373 46.171-.102 14.863-10.151 20.284-10.151 20.284z" fill="url(#_Linear3)"/><path d="m57.121 105.193v49.302c8.644 3.702 18.157 5.751 28.145 5.751 10.128 0 19.767-2.107 28.503-5.906v-49.147c-6.428-1.585-16.346-3.378-28.324-3.378s-21.896 1.793-28.324 3.378z" fill="url(#_Linear4)"/><path d="m197.025 298.009v19.631c0 2.3 1.867 4.167 4.167 4.167s4.167-1.867 4.167-4.167v-19.631c0-2.3-1.867-4.167-4.167-4.167s-4.167 1.867-4.167 4.167zm-55.089-5.883-4.26 7.378c-1.15 1.992-.467 4.542 1.525 5.692 1.991 1.15 4.542.467 5.692-1.525l4.26-7.379c1.149-1.991.466-4.542-1.525-5.691-1.992-1.15-4.542-.467-5.692 1.525zm122.772 7.378-4.26-7.378c-1.15-1.992-3.7-2.675-5.692-1.525-1.991 1.149-2.675 3.7-1.525 5.691l4.26 7.379c1.15 1.992 3.701 2.675 5.692 1.525 1.992-1.15 2.675-3.7 1.525-5.692zm-161.984-49.64-7.379 4.26c-1.991 1.15-2.675 3.7-1.525 5.691 1.15 1.992 3.7 2.675 5.692 1.526l7.379-4.26c1.991-1.15 2.675-3.701 1.525-5.692-1.15-1.992-3.701-2.675-5.692-1.525zm204.315 4.26-7.379-4.26c-1.992-1.15-4.542-.467-5.692 1.525-1.15 1.991-.466 4.542 1.525 5.692l7.379 4.26c1.992 1.149 4.542.466 5.692-1.526 1.15-1.991.466-4.541-1.525-5.691zm-92.185-51.366 31.063.219c2.3.016 4.18-1.838 4.196-4.137.017-2.3-1.837-4.18-4.137-4.196l-31.063-.219c-2.3-.016-4.18 1.838-4.196 4.137-.016 2.3 1.837 4.18 4.137 4.196zm-133.478-.767h19.632c2.299 0 4.166-1.867 4.166-4.167 0-2.299-1.867-4.166-4.166-4.166h-19.632c-2.299 0-4.166 1.867-4.166 4.166 0 2.3 1.867 4.167 4.166 4.167zm220 0h19.632c2.299 0 4.166-1.867 4.166-4.167 0-2.299-1.867-4.166-4.166-4.166h-19.632c-2.299 0-4.166 1.867-4.166 4.166 0 2.3 1.867 4.167 4.166 4.167zm-96.017-16.764v-65.241c0-2.299-1.867-4.166-4.167-4.166s-4.167 1.867-4.167 4.166v65.241c0 2.299 1.867 4.166 4.167 4.166s4.167-1.867 4.167-4.166zm97.513-50.919-7.379 4.26c-1.991 1.15-2.675 3.7-1.525 5.692 1.15 1.991 3.7 2.675 5.692 1.525l7.379-4.26c1.991-1.15 2.675-3.7 1.525-5.692-1.15-1.991-3.7-2.675-5.692-1.525zm-45.381-42.33-4.26 7.378c-1.15 1.992-.466 4.542 1.525 5.692 1.992 1.15 4.542.467 5.692-1.525l4.26-7.379c1.15-1.991.467-4.542-1.525-5.691-1.991-1.15-4.542-.467-5.692 1.525zm-60.466-13.969v19.631c0 2.3 1.867 4.167 4.167 4.167s4.167-1.867 4.167-4.167v-19.631c0-2.3-1.867-4.167-4.167-4.167s-4.167 1.867-4.167 4.167z" fill="url(#_Linear5)"/><circle cx="201.192" cy="197.824" fill="url(#_Linear6)" r="14.731"/><path d="m50.633 111.46s14.236-5.479 34.812-5.479 34.813 5.479 34.813 5.479c2.144.831 4.559-.234 5.391-2.378s-.234-4.56-2.378-5.392c0 0-15.461-6.042-37.826-6.042s-37.826 6.042-37.826 6.042c-2.144.832-3.21 3.248-2.378 5.392s3.248 3.209 5.392 2.378z" fill="url(#_Linear4)"/></g></g></svg>